<svg preserveAspectRatio="none" width="100%" height="100%" overflow="visible" style="display: block;" viewBox="0 0 81.3369 93.287" fill="none" xmlns="http://www.w3.org/2000/svg">
<g id="Group 1437258115">
<g id="Group">
<path id="Vector" d="M29.3883 43.0225L34.4599 87.6885L29.7906 92.8779H48.4493V46.6146" stroke="#1E1E1E" stroke-width="0.818287" stroke-linecap="round" stroke-linejoin="round"/>
<path id="Vector_2" d="M34.4595 87.6885L29.7902 92.8779H48.449V87.6561L34.4595 87.6885Z" fill="#1E1E1E"/>
<path id="Vector_3" d="M71.7009 43.0225L66.6294 87.6885L71.2987 92.8779H52.6399V46.6146" stroke="#1E1E1E" stroke-width="0.818287" stroke-linecap="round" stroke-linejoin="round"/>
<path id="Vector_4" d="M66.6294 87.6885L71.2987 92.8779H52.6399V87.6561L66.6294 87.6885Z" fill="#1E1E1E"/>
</g>
<g id="Group_2">
<path id="Vector_5" d="M10.5552 23.1153L9.53119 16.3286C9.3324 15.0157 11.0453 14.2945 11.8173 15.3763C12.9268 16.9273 13.0563 21.0511 13.863 26.4024C15.0581 34.3333 21.3871 31.1087 21.3871 31.1087" stroke="#1E1E1E" stroke-width="0.818287" stroke-linecap="round" stroke-linejoin="round"/>
<path id="Vector_6" d="M25.6245 48.2164C8.77566 54.3628 2.65007 38.1242 0.847064 26.1689C-0.32489 18.4021 1.10133 13.7374 2.24555 11.419C2.64776 10.6053 3.82433 10.6538 4.16644 11.4952L5.45397 14.6644C5.89548 15.7531 5.72442 16.9713 5.08181 17.956C4.50855 18.8321 4.09478 20.4455 4.75589 23.3881" stroke="#1E1E1E" stroke-width="0.818287" stroke-linecap="round" stroke-linejoin="round"/>
<path id="Vector_7" d="M3.55808 3.666L6.76651 3.18288L9.46408 15.8987L10.5274 22.9466C10.5667 23.2101 10.2292 23.3534 10.0674 23.1431L6.21405 18.1201L3.55808 3.666Z" fill="#1E1E1E"/>
</g>
<path id="Vector_8" d="M73.1239 2.68755e-05H27.9633C23.4274 2.68755e-05 19.7504 3.67708 19.7504 8.21295V53.3736C19.7504 57.9095 23.4274 61.5865 27.9633 61.5865H73.1239C77.6598 61.5865 81.3369 57.9095 81.3369 53.3736V8.21295C81.3369 3.67708 77.6598 2.68755e-05 73.1239 2.68755e-05Z" fill="#8D8DFF"/>
<g id="Group_3">
<path id="Vector_9" d="M62.3927 36.7929C62.3927 36.7929 60.1921 37.5627 58.7612 34.3727C57.3304 31.1805 55.7886 26.1737 52.4877 28.1547C50.0745 29.6017 49.307 32.3732 49.7994 34.2756C50.0814 35.3667 51.4753 35.7296 52.2334 34.8951C52.742 34.3357 53.2459 33.5013 53.4794 32.2923C53.4794 32.2923 53.5903 34.1554 55.4604 33.7139" stroke="#1E1E1E" stroke-width="0.818287" stroke-linecap="round" stroke-linejoin="round"/>
<path id="Vector_10" d="M51.2925 29.1024C51.2925 29.1024 46.3735 28.1038 46.3735 32.2553C46.3735 39.5783 51.2925 35.3459 51.2925 35.3459" stroke="#1E1E1E" stroke-width="0.818287" stroke-linecap="round" stroke-linejoin="round"/>
<path id="Vector_11" d="M48.1278 29.3428C48.1278 29.3428 42.9707 29.6109 44.9517 36.8738C46.9327 44.1367 58.606 51.6376 69.5466 45.267" stroke="#1E1E1E" stroke-width="0.818287" stroke-linecap="round" stroke-linejoin="round"/>
<path id="Vector_12" d="M46.3661 29.5924C46.3661 29.5924 42.7693 26.9388 40.6381 27.5282C39.7088 27.7848 39.658 29.0839 40.5456 29.4584C41.7569 29.9692 44.0314 31.4024 44.496 32.7778" stroke="#1E1E1E" stroke-width="0.818287" stroke-linecap="round" stroke-linejoin="round"/>
</g>
<g id="Group_4">
<path id="Vector_13" d="M44.4267 15.5451C43.4512 15.8364 42.3047 16.4929 41.2437 16.5576C40.074 16.6292 39.057 16.0768 37.959 15.8641" stroke="#1E1E1E" stroke-width="0.885322" stroke-linecap="round" stroke-linejoin="round"/>
<g id="Group_5">
<path id="Vector_14" d="M45.5712 10.603C45.5019 9.47733 46.3594 8.50879 47.4852 8.44176C48.6109 8.37241 49.5794 9.22999 49.6465 10.3557" stroke="#1E1E1E" stroke-width="0.885322" stroke-linecap="round" stroke-linejoin="round"/>
<path id="Vector_15" d="M31.9817 11.4282C31.9124 10.3025 32.7699 9.33399 33.8957 9.26695C35.0214 9.1976 35.9899 10.0552 36.057 11.1809" stroke="#1E1E1E" stroke-width="0.885322" stroke-linecap="round" stroke-linejoin="round"/>
</g>
</g>
</g>
</svg>
