<svg preserveAspectRatio="none" width="100%" height="100%" overflow="visible" style="display: block;" viewBox="0 0 7.58333 10.5462" fill="none" xmlns="http://www.w3.org/2000/svg">
<path id="Vector" d="M3.79167 0C1.69542 0 0 1.69542 0 3.79167C0 6.05042 2.39417 9.165 3.38 10.3512C3.59667 10.6112 3.99208 10.6112 4.20875 10.3512C5.18917 9.165 7.58333 6.05042 7.58333 3.79167C7.58333 1.69542 5.88792 0 3.79167 0ZM3.79167 5.14583C3.04417 5.14583 2.4375 4.53917 2.4375 3.79167C2.4375 3.04417 3.04417 2.4375 3.79167 2.4375C4.53917 2.4375 5.14583 3.04417 5.14583 3.79167C5.14583 4.53917 4.53917 5.14583 3.79167 5.14583Z" fill="#F6DDE1"/>
</svg>
