<svg preserveAspectRatio="none" width="100%" height="100%" overflow="visible" style="display: block;" viewBox="0 0 10.2401 13.1625" fill="none" xmlns="http://www.w3.org/2000/svg">
<path id="Vector" d="M5.12087 13.1625C5.86337 13.1625 6.47087 12.555 6.47087 11.8125H3.77087C3.77087 12.555 4.37162 13.1625 5.12087 13.1625ZM9.17087 9.1125V5.7375C9.17087 3.66525 8.06387 1.9305 6.13337 1.4715V1.0125C6.13337 0.45225 5.68112 0 5.12087 0C4.56062 0 4.10837 0.45225 4.10837 1.0125V1.4715C2.17112 1.9305 1.07087 3.6585 1.07087 5.7375V9.1125L0.200122 9.98325C-0.225128 10.4085 0.071872 11.1375 0.672622 11.1375H9.56237C10.1631 11.1375 10.4669 10.4085 10.0416 9.98325L9.17087 9.1125Z" fill="#F6DDE1"/>
</svg>
