<svg preserveAspectRatio="none" width="100%" height="100%" overflow="visible" style="display: block;" viewBox="0 0 7 10" fill="none" xmlns="http://www.w3.org/2000/svg">
<g id="Group">
<path id="Vector" d="M4.5 1V3.5C4.5 4.06 4.685 4.58 5 5H2C2.325 4.57 2.5 4.05 2.5 3.5V1H4.5ZM6 0H1C0.725 0 0.5 0.225 0.5 0.5C0.5 0.775 0.725 1 1 1H1.5V3.5C1.5 4.33 0.83 5 0 5V6H2.985V9.5L3.485 10L3.985 9.5V6H7V5C6.17 5 5.5 4.33 5.5 3.5V1H6C6.275 1 6.5 0.775 6.5 0.5C6.5 0.225 6.275 0 6 0Z" fill="#323232"/>
</g>
</svg>
