<svg preserveAspectRatio="none" width="100%" height="100%" overflow="visible" style="display: block;" viewBox="0 0 10 9.00052" fill="none" xmlns="http://www.w3.org/2000/svg">
<path id="Vector" d="M2.75 0C1.2312 0 0 1.231 0 2.75001C0 4.34201 0.90675 5.84401 2.40625 7.21901C2.91805 7.68801 3.4691 8.09951 4.0156 8.46901C4.20715 8.59801 4.3863 8.71502 4.5469 8.81252C4.6448 8.87202 4.70935 8.91502 4.75 8.93752C4.901 9.02152 5.099 9.02152 5.25 8.93752C5.29065 8.91502 5.3552 8.87202 5.4531 8.81252C5.6137 8.71502 5.79285 8.59801 5.9844 8.46901C6.5309 8.09951 7.08195 7.68801 7.59375 7.21901C9.09325 5.84401 10 4.34201 10 2.75001C10 1.231 8.7688 0 7.25 0C6.3874 0 5.5452 0.470007 5.0156 1.15601C4.4992 0.458007 3.65995 0 2.75 0Z" fill="#FFB9FF"/>
</svg>
