<svg preserveAspectRatio="none" width="100%" height="100%" overflow="visible" style="display: block;" viewBox="0 0 12.825 12.15" fill="none" xmlns="http://www.w3.org/2000/svg">
<path id="Vector" d="M4.725 8.775V3.375C4.725 2.6325 5.32575 2.025 6.075 2.025H12.15V1.35C12.15 0.6075 11.5425 0 10.8 0H1.35C0.60075 0 0 0.6075 0 1.35V10.8C0 11.5425 0.60075 12.15 1.35 12.15H10.8C11.5425 12.15 12.15 11.5425 12.15 10.8V10.125H6.075C5.32575 10.125 4.725 9.5175 4.725 8.775ZM6.75 3.375C6.37875 3.375 6.075 3.67875 6.075 4.05V8.1C6.075 8.47125 6.37875 8.775 6.75 8.775H12.825V3.375H6.75ZM8.775 7.0875C8.21475 7.0875 7.7625 6.63525 7.7625 6.075C7.7625 5.51475 8.21475 5.0625 8.775 5.0625C9.33525 5.0625 9.7875 5.51475 9.7875 6.075C9.7875 6.63525 9.33525 7.0875 8.775 7.0875Z" fill="#F6DDE1"/>
</svg>
