<svg preserveAspectRatio="none" width="100%" height="100%" overflow="visible" style="display: block;" viewBox="0 0 15.397 13.7582" fill="none" xmlns="http://www.w3.org/2000/svg">
<g id="Group 1437258091">
<path id="Vector" d="M13.6774 0H4.21958C3.26987 0 2.49998 0.769891 2.49998 1.7196V11.1774C2.49998 12.1271 3.26987 12.897 4.21958 12.897H13.6774C14.6271 12.897 15.397 12.1271 15.397 11.1774V1.7196C15.397 0.769891 14.6271 0 13.6774 0Z" fill="#F6D307"/>
<g id="Group">
<path id="Vector_2" d="M6.50549 11.0951C6.46847 11.0951 6.43146 11.0891 6.39563 11.0772C5.68988 10.8491 5.01278 10.4646 4.49093 9.99407C4.0061 9.55701 3.7804 9.00172 3.85325 8.43091C3.92012 7.90906 4.24851 7.41348 4.67005 7.19495C5.09159 6.97642 5.68629 6.99552 6.15082 7.24272C6.65954 7.5126 6.98196 8.01773 7.05958 8.66616C7.14078 9.34922 7.07391 10.0801 6.86493 10.7774L6.85299 10.8264C6.82791 10.9219 6.76582 11.0031 6.67865 11.0521C6.62491 11.082 6.56519 11.0963 6.50549 11.0963V11.0951ZM5.34237 7.7586C5.20743 7.7586 5.08682 7.78606 4.99964 7.83025C4.81574 7.92578 4.60676 8.19327 4.56497 8.52167C4.52198 8.85723 4.6617 9.18324 4.97098 9.46148C5.33162 9.78629 5.77944 10.0645 6.25949 10.264C6.37413 9.75763 6.40518 9.22981 6.34906 8.74856C6.3001 8.33538 6.11618 8.03325 5.81645 7.87443C5.6624 7.79203 5.49403 7.7586 5.34356 7.7586H5.34237Z" fill="#1E1E1E"/>
<path id="Vector_3" d="M8.9089 5.42992C9.43783 5.42992 9.86662 5.00113 9.86662 4.4722C9.86662 3.94326 9.43783 3.51448 8.9089 3.51448C8.37996 3.51448 7.95117 3.94326 7.95117 4.4722C7.95117 5.00113 8.37996 5.42992 8.9089 5.42992Z" fill="#1E1E1E"/>
<path id="Vector_4" d="M5.48116 5.24266C6.0101 5.24266 6.43888 4.81388 6.43888 4.28494C6.43888 3.75601 6.0101 3.32722 5.48116 3.32722C4.95223 3.32722 4.52344 3.75601 4.52344 4.28494C4.52344 4.81388 4.95223 5.24266 5.48116 5.24266Z" fill="#1E1E1E"/>
<path id="Vector_5" d="M11.2565 7.97242C11.7855 7.97242 12.2143 7.54364 12.2143 7.0147C12.2143 6.48577 11.7855 6.05698 11.2565 6.05698C10.7276 6.05698 10.2988 6.48577 10.2988 7.0147C10.2988 7.54364 10.7276 7.97242 11.2565 7.97242Z" fill="#1E1E1E"/>
<path id="Vector_6" d="M4.4227 13.7582C3.32885 13.7582 1.99377 13.1743 1.34295 12.4996C-0.595185 10.4886 -0.228576 7.24527 1.13397 5.08024C2.75087 2.51398 5.39833 1.4261 8.39688 2.09483C11.0682 2.69072 13.1126 4.79603 13.3706 7.21422C13.4386 7.8531 13.3634 8.52183 13.1532 9.14996C12.5215 11.0356 10.8724 12.2321 9.0501 12.1282C8.44824 12.0936 7.82249 11.9431 7.18958 11.6804L7.16929 11.672C7.05106 11.6243 6.94358 11.5801 6.84685 11.5383C6.79431 11.7114 6.72863 11.8906 6.65101 12.0721C6.28798 12.9211 5.7518 13.4716 5.10218 13.6675C4.8932 13.7296 4.66392 13.7582 4.42151 13.7582H4.4227ZM6.69042 2.61907C5.12726 2.61907 3.17957 3.17913 1.74179 5.46238C0.758995 7.02196 -0.0207967 10.0516 1.86001 12.0028C2.48337 12.6489 4.03937 13.24 4.89798 12.9808C5.45327 12.8137 5.80076 12.2417 5.99302 11.7903C6.12318 11.4858 6.21276 11.1968 6.25694 10.9329C6.29038 10.7382 6.47666 10.6068 6.67012 10.6391C6.7561 10.6534 6.83014 10.6976 6.88268 10.7585C6.93642 10.7884 7.08092 10.8624 7.44036 11.0081L7.46544 11.0188C8.02311 11.2505 8.57004 11.3831 9.09069 11.4129C10.8175 11.5108 12.0355 10.2331 12.4738 8.92188C12.6517 8.39167 12.715 7.82683 12.6577 7.28945C12.432 5.17339 10.6156 3.32363 8.24045 2.79342C7.80935 2.69669 7.27556 2.61787 6.68803 2.61787L6.69042 2.61907ZM6.96388 11.0523V11.0475C6.96388 11.0475 6.96388 11.0511 6.96388 11.0523Z" fill="#1E1E1E"/>
</g>
</g>
</svg>
