<svg preserveAspectRatio="none" width="100%" height="100%" overflow="visible" style="display: block;" viewBox="0 0 15.2375 14.8629" fill="none" xmlns="http://www.w3.org/2000/svg">
<g id="Group 1437258086">
<path id="Vector" d="M7.61968 14.8629C11.4957 14.8629 14.6378 11.7208 14.6378 7.84477C14.6378 3.96878 11.4957 0.82666 7.61968 0.82666C3.74368 0.82666 0.601562 3.96878 0.601562 7.84477C0.601562 11.7208 3.74368 14.8629 7.61968 14.8629Z" fill="#64BDFF"/>
<g id="Group">
<path id="Vector_2" d="M15.2375 6.59238C15.2375 6.06674 14.8114 5.64063 14.2857 5.64063C13.7601 5.64063 13.334 6.06674 13.334 6.59238V9.1861C13.334 9.71174 13.7601 10.1379 14.2857 10.1379C14.8114 10.1379 15.2375 9.71174 15.2375 9.1861V6.59238Z" fill="#1E1E1E"/>
<path id="Vector_3" d="M1.9035 6.59238C1.9035 6.06674 1.47739 5.64063 0.95175 5.64063C0.426113 5.64063 0 6.06674 0 6.59238V9.1861C0 9.71174 0.426113 10.1379 0.95175 10.1379C1.47739 10.1379 1.9035 9.71174 1.9035 9.1861V6.59238Z" fill="#1E1E1E"/>
</g>
<path id="Vector_4" d="M14.2837 6.57906C14.0998 6.57906 13.9433 6.43934 13.9278 6.25305C13.923 6.19931 13.9183 6.13244 13.9123 6.05243C13.849 5.17711 13.6567 2.51412 12.0936 1.32473C11.3377 0.750333 10.3334 0.58315 9.11054 0.827954C8.79051 0.892439 8.43942 1.09784 8.10386 1.39518C8.50988 1.8621 8.85141 2.41261 9.06516 2.98104C9.29444 3.59125 9.24071 4.18834 8.91231 4.66242C8.61257 5.09471 8.09311 5.38489 7.61903 5.38489C7.14494 5.38489 6.62548 5.09471 6.32575 4.66242C5.99735 4.18834 5.94361 3.59125 6.17289 2.98104C6.38904 2.40545 6.71743 1.86091 7.10076 1.40235C6.75803 1.10978 6.40576 0.905575 6.10244 0.821983C5.6403 0.694207 4.1858 0.558073 3.01194 1.45011C1.88345 2.30872 1.31025 3.87547 1.31025 6.10497C1.31025 6.30321 1.15023 6.46322 0.952 6.46322C0.753768 6.46322 0.59375 6.30321 0.59375 6.10497C0.59375 3.63902 1.26129 1.88121 2.57845 0.879303C3.93383 -0.151262 5.60089 -0.0605055 6.2935 0.130561C6.72818 0.251172 7.17958 0.519859 7.59753 0.885274C8.03818 0.490005 8.51585 0.215347 8.96844 0.12459C10.4026 -0.163204 11.6004 0.0481636 12.5271 0.752722C14.3482 2.13795 14.5583 5.04336 14.6276 5.99869C14.6336 6.07393 14.6371 6.13722 14.6419 6.18737C14.6598 6.38441 14.5141 6.55876 14.3171 6.57548C14.3064 6.57548 14.2956 6.57667 14.2849 6.57667L14.2837 6.57906ZM7.60948 1.91465C7.29422 2.30275 7.02075 2.76131 6.84401 3.233C6.69713 3.6223 6.72221 3.97578 6.91447 4.25402C7.10315 4.52629 7.41124 4.66839 7.61903 4.66839C7.82681 4.66839 8.13491 4.52629 8.32359 4.25402C8.51704 3.97578 8.54092 3.6223 8.39404 3.233C8.20775 2.73862 7.92832 2.28961 7.60948 1.91465Z" fill="#1E1E1E"/>
</g>
</svg>
