<svg preserveAspectRatio="none" width="100%" height="100%" overflow="visible" style="display: block;" viewBox="0 0 14.9856 12.897" fill="none" xmlns="http://www.w3.org/2000/svg">
<g id="Group 1437258094">
<path id="Vector" d="M11.1774 0H1.7196C0.769894 0 0 0.769886 0 1.71959V11.1774C0 12.1271 0.769894 12.897 1.7196 12.897H11.1774C12.1271 12.897 12.897 12.1271 12.897 11.1774V1.71959C12.897 0.769886 12.1271 0 11.1774 0Z" fill="#FFB9FF"/>
<g id="Group">
<path id="Vector_2" d="M8.60158 12.2977C8.26243 12.2977 7.92209 12.2284 7.60683 12.0887L2.43251 9.80668C2.30235 9.74936 2.21875 9.62039 2.21875 9.47948V2.43031C2.21875 2.3097 2.27966 2.19745 2.37997 2.13177C2.48028 2.0649 2.60805 2.05415 2.71791 2.10192L6.55357 3.7427C7.33217 4.07587 8.03075 4.51652 8.6362 5.05628C9.25478 4.51413 9.97844 4.06633 10.7678 3.74032C11.7673 3.32594 13.2218 2.70736 14.4733 2.11147C14.5843 2.05893 14.7145 2.06609 14.8184 2.13177C14.9223 2.19745 14.9856 2.3121 14.9856 2.4351V9.48068C14.9856 9.62278 14.902 9.75175 14.7718 9.80788L9.59751 12.0899C9.28105 12.2296 8.9419 12.2989 8.60276 12.2989L8.60158 12.2977ZM2.93525 9.24542L7.89582 11.4331C8.34483 11.6314 8.85951 11.6314 9.30732 11.4331L14.2679 9.24542V2.99754C13.1334 3.52178 11.9142 4.03886 11.0401 4.40069C10.3403 4.69087 9.69781 5.08495 9.1473 5.55903C9.60825 6.05819 9.92113 6.52033 10.0764 6.9359C10.3056 7.54612 10.2519 8.1432 9.92351 8.61729C9.62378 9.04958 9.10432 9.33976 8.63023 9.33976C8.15615 9.33976 7.63668 9.04958 7.33694 8.61729C7.00855 8.1432 6.95481 7.54612 7.18409 6.9359C7.31665 6.58362 7.56384 6.19433 7.91731 5.77876C7.9818 5.70233 8.04867 5.6283 8.11793 5.55426C7.57936 5.08256 6.96078 4.69445 6.27055 4.39949L2.93405 2.97247V9.24542H2.93525ZM8.63143 6.0558C8.57411 6.1179 8.51797 6.18 8.46424 6.24448C8.1645 6.59557 7.95911 6.91322 7.85641 7.18788C7.70953 7.57717 7.7346 7.93065 7.92686 8.20889C8.11554 8.48116 8.42365 8.62326 8.63143 8.62326C8.83922 8.62326 9.1473 8.48116 9.33598 8.20889C9.52943 7.93065 9.55333 7.57717 9.40644 7.18788C9.28583 6.86664 9.01834 6.47734 8.63143 6.0558Z" fill="#1E1E1E"/>
<path id="Vector_3" d="M8.63347 5.90013C8.51525 5.90013 8.39942 5.84161 8.33016 5.73414C8.30747 5.69831 6.1114 2.28061 3.60127 1.42798V2.52423C3.60127 2.72246 3.44125 2.88248 3.24302 2.88248C3.04478 2.88248 2.88477 2.72246 2.88477 2.52423V0.957476C2.88477 0.848807 2.93372 0.747308 3.01732 0.67924C3.10091 0.611173 3.21077 0.584897 3.31705 0.607586C6.2965 1.24169 8.82813 5.18244 8.93441 5.34962C9.04069 5.51681 8.99054 5.73773 8.82455 5.84401C8.76484 5.88222 8.69796 5.90013 8.63228 5.90013H8.63347Z" fill="#1E1E1E"/>
<path id="Vector_4" d="M8.62976 5.90013C8.56408 5.90013 8.49721 5.88222 8.43751 5.84401C8.27032 5.73773 8.22136 5.51681 8.32764 5.34962C8.43392 5.18244 10.9655 1.24169 13.945 0.607586C14.0501 0.584897 14.1611 0.611173 14.2447 0.67924C14.3283 0.747308 14.3773 0.850001 14.3773 0.957476V2.52423C14.3773 2.72246 14.2173 2.88248 14.019 2.88248C13.8208 2.88248 13.6608 2.72246 13.6608 2.52423V1.42798C11.1518 2.28061 8.95577 5.69712 8.93189 5.73414C8.86382 5.84161 8.74799 5.90013 8.62858 5.90013H8.62976Z" fill="#1E1E1E"/>
</g>
</g>
</svg>
