<svg preserveAspectRatio="none" width="100%" height="100%" overflow="visible" style="display: block;" viewBox="0 0 12.093 12.2941" fill="none" xmlns="http://www.w3.org/2000/svg">
<path id="Vector" d="M6.38965 1.5957C6.73561 2.55627 7.28363 3.42999 7.99609 4.1543C8.70857 4.8786 9.56912 5.43637 10.5166 5.78906L11.4775 6.14746L10.5166 6.50586C9.5691 6.85856 8.70858 7.41727 7.99609 8.1416C7.28382 8.86584 6.73555 9.73882 6.38965 10.6992L6.04688 11.6494L5.7041 10.6992C5.35819 9.73879 4.80996 8.86585 4.09766 8.1416C3.38527 7.41737 2.52548 6.85857 1.57812 6.50586H1.57715L0.614258 6.14746L1.57715 5.78906H1.57812C2.52541 5.43637 3.3853 4.87846 4.09766 4.1543C4.81012 3.42999 5.35814 2.55627 5.7041 1.5957L6.04688 0.643555L6.38965 1.5957ZM0.435547 6.14746V6.15039H0.43457V6.14844L0.435547 6.14746Z" fill="#F6D307" stroke="black"/>
</svg>
