<svg preserveAspectRatio="none" width="100%" height="100%" overflow="visible" style="display: block;" viewBox="0 0 18.5802 18.2222" fill="none" xmlns="http://www.w3.org/2000/svg">
<path id="Vector" d="M9.29102 0.5C9.32585 0.500052 9.35886 0.510817 9.38574 0.529297C9.41257 0.547739 9.43145 0.572693 9.44141 0.599609L9.44238 0.600586L10.0723 2.28906C10.5923 3.68193 11.4152 4.94647 12.4834 5.99414C13.5516 7.0418 14.8398 7.84758 16.2568 8.35645L17.9766 8.97461L17.9785 8.97559C18.0103 8.987 18.0362 9.00683 18.0537 9.03125C18.0711 9.05562 18.08 9.08367 18.0801 9.11133C18.0801 9.13911 18.0712 9.16789 18.0537 9.19238C18.0362 9.21677 18.0103 9.23666 17.9785 9.24805L17.9766 9.24902L16.2568 9.86719C14.8398 10.3761 13.5516 11.1818 12.4834 12.2295C11.4153 13.277 10.5923 14.541 10.0723 15.9336L9.44238 17.6211L9.44141 17.623C9.43142 17.6499 9.41248 17.675 9.38574 17.6934C9.3589 17.7117 9.32576 17.7226 9.29102 17.7227C9.25609 17.7227 9.22226 17.7119 9.19531 17.6934C9.16858 17.675 9.14961 17.6499 9.13965 17.623V17.6211L8.50977 15.9336C7.98972 14.5408 7.16583 13.2771 6.09766 12.2295C5.02951 11.182 3.7421 10.376 2.3252 9.86719L0.603516 9.24902L0.601562 9.24805C0.569798 9.23664 0.543889 9.21677 0.526367 9.19238C0.508861 9.16789 0.5 9.13911 0.5 9.11133C0.500085 9.08368 0.508947 9.05563 0.526367 9.03125C0.54388 9.00683 0.569774 8.98701 0.601562 8.97559L0.603516 8.97461L2.3252 8.35645C3.74209 7.8476 5.02952 7.04165 6.09766 5.99414C7.16593 4.94646 7.98973 3.68195 8.50977 2.28906L9.13965 0.600586V0.599609C9.14957 0.572796 9.16865 0.547716 9.19531 0.529297C9.22226 0.510772 9.25609 0.5 9.29102 0.5Z" fill="#FFB9FF" stroke="black"/>
</svg>
