<svg preserveAspectRatio="none" width="100%" height="100%" overflow="visible" style="display: block;" viewBox="0 0 25 25" fill="none" xmlns="http://www.w3.org/2000/svg">
<path id="Vector" d="M12.3389 0.5C12.416 0.5 12.4915 0.524107 12.5547 0.568359C12.6175 0.612523 12.6651 0.674897 12.6914 0.74707L12.6924 0.749023L13.5293 3.03516C14.2106 4.89595 15.2892 6.58609 16.6904 7.9873C18.0916 9.38852 19.7818 10.4671 21.6426 11.1484L23.9277 11.9854L23.9287 11.9863C24.0011 12.0126 24.0642 12.06 24.1084 12.123C24.1526 12.1862 24.1758 12.2618 24.1758 12.3389C24.1758 12.416 24.1526 12.4916 24.1084 12.5547C24.0642 12.6178 24.0011 12.6651 23.9287 12.6914L23.9277 12.6924L21.6426 13.5293C19.7818 14.2106 18.0917 15.2892 16.6904 16.6904C15.2892 18.0917 14.2106 19.7818 13.5293 21.6426L12.6924 23.9277L12.6914 23.9287C12.6651 24.0011 12.6178 24.0642 12.5547 24.1084C12.4916 24.1526 12.416 24.1758 12.3389 24.1758C12.2618 24.1758 12.1862 24.1526 12.123 24.1084C12.06 24.0642 12.0126 24.0011 11.9863 23.9287L11.9854 23.9277L11.1484 21.6426C10.4671 19.7818 9.38852 18.0916 7.9873 16.6904C6.58609 15.2892 4.89595 14.2106 3.03516 13.5293L0.749023 12.6924L0.74707 12.6914C0.674897 12.6651 0.612523 12.6175 0.568359 12.5547C0.524107 12.4915 0.5 12.416 0.5 12.3389C0.500009 12.2618 0.524116 12.1862 0.568359 12.123C0.612526 12.0602 0.674905 12.0126 0.74707 11.9863L0.749023 11.9854L3.03516 11.1484C4.89597 10.4671 6.58608 9.38853 7.9873 7.9873C9.38853 6.58608 10.4671 4.89597 11.1484 3.03516L11.9854 0.749023L11.9863 0.74707C12.0126 0.674905 12.0602 0.612526 12.123 0.568359C12.1862 0.524116 12.2618 0.500009 12.3389 0.5Z" fill="var(--fill-0, #FFB9FF)" stroke="var(--stroke-0, black)"/>
</svg>
