<svg preserveAspectRatio="none" width="100%" height="100%" overflow="visible" style="display: block;" viewBox="0 0 14 14" fill="none" xmlns="http://www.w3.org/2000/svg">
<path id="Vector" d="M7.47266 1.7959V1.79688C7.87004 2.88199 8.49928 3.86744 9.31641 4.68457C10.0315 5.39968 10.8758 5.97034 11.8027 6.36816L12.2041 6.52832L13.4941 7L12.2041 7.47266C11.119 7.87004 10.1335 8.49928 9.31641 9.31641C8.49928 10.1335 7.87004 11.119 7.47266 12.2041L7 13.4941L6.52832 12.2041C6.13094 11.119 5.50169 10.1335 4.68457 9.31641C3.86744 8.49928 2.88199 7.87004 1.79688 7.47266H1.7959L0.504883 7L1.7959 6.52832H1.79688C2.88199 6.13094 3.86744 5.5017 4.68457 4.68457C5.5017 3.86744 6.13094 2.88199 6.52832 1.79688V1.7959L7 0.504883L7.47266 1.7959Z" fill="var(--fill-0, #64BDFF)" stroke="var(--stroke-0, black)"/>
</svg>
