<svg width="212" height="205" viewBox="0 0 212 205" fill="none" xmlns="http://www.w3.org/2000/svg">
<path d="M12 63.8905C12 63.8905 21.6799 19.1601 42.2583 37.3512C62.1975 54.9852 71.5509 72.4652 99.4547 85.5288C133.553 101.491 130.955 34.9007 130.955 34.9007" stroke="#1E1E1E" stroke-width="1.5" stroke-miterlimit="10"/>
<path d="M8.98902 70.0134C3.72332 70.3338 -0.290909 74.9888 0.0165456 80.4183C0.272036 84.9309 4.43784 91.0992 7.1443 94.5838C7.59899 95.1712 8.10996 95.861 8.60362 96.404C9.30081 97.1739 9.66022 97.2139 10.3747 96.4306C10.8727 95.8832 11.3967 95.1801 11.8557 94.5838C14.5622 91.1036 18.728 84.9309 18.9835 80.4183C19.2909 74.9888 15.2767 70.3338 10.011 70.0134C9.6992 69.9955 9.29648 69.9955 8.98469 70.0134H8.98902ZM4.72364 79.7819C4.72364 77.0716 6.86283 74.8732 9.50001 74.8732C12.1372 74.8732 14.2764 77.0716 14.2764 79.7819C14.2764 82.4922 12.1372 84.6906 9.50001 84.6906C6.86283 84.6906 4.72364 82.4922 4.72364 79.7819Z" fill="black"/>
<path d="M130.408 0.01434C124.311 0.358501 119.663 5.35839 120.019 11.19C120.315 16.0369 125.139 22.6621 128.272 26.4048C128.799 27.0358 129.39 27.7766 129.962 28.3598C130.769 29.1867 131.186 29.2297 132.013 28.3885C132.589 27.8005 133.196 27.0453 133.728 26.4048C136.861 22.6668 141.685 16.0369 141.981 11.19C142.337 5.35839 137.689 0.358501 131.592 0.01434C131.231 -0.00478001 130.764 -0.00478001 130.403 0.01434H130.408ZM125.469 10.5065C125.469 7.59547 127.946 5.23413 131 5.23413C134.054 5.23413 136.531 7.59547 136.531 10.5065C136.531 13.4175 134.054 15.7788 131 15.7788C127.946 15.7788 125.469 13.4175 125.469 10.5065Z" fill="black"/>
<path d="M166.055 126.665L158.186 195.951L165.431 203.999H136.487V132.239" stroke="#1E1E1E" stroke-linecap="round" stroke-linejoin="round"/>
<path d="M158.182 195.951L165.428 204H136.483V195.9L158.182 195.951Z" fill="#1E1E1E"/>
<path d="M100.418 126.665L108.283 195.951L101.042 203.999H129.986V132.239" stroke="#1E1E1E" stroke-linecap="round" stroke-linejoin="round"/>
<path d="M108.283 195.951L101.042 204H129.986V195.9L108.283 195.951Z" fill="#1E1E1E"/>
<path d="M195.266 95.7867L196.854 85.2581C197.163 83.2217 194.504 82.1042 193.308 83.7804C191.59 86.1863 191.387 92.582 190.135 100.88C188.279 113.182 178.466 108.181 178.466 108.181" stroke="#1E1E1E" stroke-linecap="round" stroke-linejoin="round"/>
<path d="M171.888 134.724C198.021 144.255 207.524 119.069 210.322 100.524C212.137 88.4765 209.925 81.2403 208.152 77.6477C207.529 76.3824 205.705 76.4609 205.174 77.7631L203.174 82.6811C202.486 84.3712 202.754 86.2599 203.751 87.7838C204.643 89.1414 205.28 91.6443 204.255 96.2067" stroke="#1E1E1E" stroke-linecap="round" stroke-linejoin="round"/>
<path d="M206.117 65.6179L201.139 64.8652L196.955 84.5925L195.307 95.5275C195.247 95.9339 195.769 96.1601 196.018 95.8322L201.993 88.042L206.117 65.6226V65.6179Z" fill="#1E1E1E"/>
<path d="M98.2093 59.9297H168.261C175.298 59.9297 181.002 65.6339 181.002 72.6703V142.722C181.002 149.759 175.298 155.463 168.261 155.463H98.2093C91.1729 155.463 85.4687 149.759 85.4687 142.722V72.6703C85.4687 65.6339 91.1729 59.9297 98.2093 59.9297Z" fill="#64BDFF"/>
<path d="M114.855 117.001C114.855 117.001 118.268 118.197 120.489 113.247C122.71 108.296 125.097 100.529 130.218 103.6C133.964 105.844 135.15 110.144 134.388 113.094C133.95 114.789 131.789 115.348 130.616 114.055C129.831 113.187 129.046 111.894 128.685 110.019C128.685 110.019 128.514 112.91 125.615 112.226" stroke="#1E1E1E" stroke-linecap="round" stroke-linejoin="round"/>
<path d="M132.078 105.073C132.078 105.073 139.707 103.526 139.707 109.963C139.707 121.323 132.078 114.757 132.078 114.757" stroke="#1E1E1E" stroke-linecap="round" stroke-linejoin="round"/>
<path d="M136.982 105.448C136.982 105.448 144.985 105.864 141.91 117.131C138.839 128.399 120.728 140.031 103.757 130.149" stroke="#1E1E1E" stroke-linecap="round" stroke-linejoin="round"/>
<path d="M139.716 105.835C139.716 105.835 145.299 101.716 148.601 102.635C150.042 103.036 150.12 105.05 148.744 105.632C146.865 106.426 143.337 108.647 142.616 110.78" stroke="#1E1E1E" stroke-linecap="round" stroke-linejoin="round"/>
<path d="M142.727 84.043C144.242 84.4955 146.02 85.5114 147.664 85.613C149.478 85.7239 151.058 84.865 152.762 84.5371" stroke="#1E1E1E" stroke-linecap="round" stroke-linejoin="round"/>
<path d="M140.949 76.378C141.055 74.6325 139.725 73.1317 137.98 73.0255C136.234 72.9193 134.734 74.2492 134.627 75.9948" stroke="#1E1E1E" stroke-linecap="round" stroke-linejoin="round"/>
<path d="M162.029 77.6612C162.135 75.9157 160.805 74.4149 159.06 74.3087C157.314 74.2025 155.814 75.5324 155.707 77.278" stroke="#1E1E1E" stroke-linecap="round" stroke-linejoin="round"/>
</svg>
