<svg width="207" height="273" viewBox="0 0 207 273" fill="none" xmlns="http://www.w3.org/2000/svg">
<path d="M-7.28125 71.9817L8.08489 66.9355L46.2667 73.5996C52.381 74.6677 56.9559 79.8081 57.3015 86.0088L60.1524 137.122H-7.27742V71.9856L-7.28125 71.9817Z" fill="white" stroke="#1E1E1E" stroke-width="0.785392" stroke-linecap="round" stroke-linejoin="round"/>
<path d="M4.36274 68.1562L43.2672 75.8609C46.0829 76.4186 48.2112 78.7355 48.5293 81.5864L51.2036 105.466H45.2386L43.2358 83.5813C42.9727 80.6872 40.8441 78.3114 37.9971 77.7302L-0.738281 69.8291L4.3589 68.1562H4.36274Z" fill="#F6D307"/>
<path d="M39.2705 72.2396L37.3816 72.0472L36.3448 38.8565L26.0444 36.1037L26.1426 70.0876L24.242 69.7538L23.916 33.4727L38.4693 36.6103L39.2705 72.2396Z" fill="#1E1E1E"/>
<path d="M39.7146 45.4193L36.0743 44.7831L35.9094 38.8573L26.8184 36.4265V43.1141L23.4805 42.1403V33.1357L39.2591 36.4265L39.7146 45.4193Z" fill="#1E1E1E" stroke="#1E1E1E" stroke-width="1.17809" stroke-linecap="round" stroke-linejoin="round"/>
<path d="M-7.28125 71.9814V130.925H39.7362V91.4749C39.7362 84.8501 34.9609 79.1913 28.4343 78.08L-7.28125 71.9814Z" fill="white" stroke="#1E1E1E" stroke-width="0.785392" stroke-linecap="round" stroke-linejoin="round"/>
<path d="M67.3648 140.577L44.4629 192.103L53.7501 203.299L83.3946 126.837L67.3648 140.577Z" fill="white" stroke="#1E1E1E" stroke-width="0.785392" stroke-linecap="round" stroke-linejoin="round"/>
<path d="M67.3662 140.576L44.4643 192.102L-16.8789 171.493L-12.6574 132.055L24.1108 119.076" fill="white"/>
<path d="M67.3662 140.576L44.4643 192.102L-16.8789 171.493L-12.6574 132.055L24.1108 119.076" stroke="#1E1E1E" stroke-width="0.785392" stroke-linecap="round" stroke-linejoin="round"/>
<path d="M41.5077 105.466L83.3965 126.836L67.3667 140.577L24.1113 119.077L41.5077 105.466Z" fill="white" stroke="#1E1E1E" stroke-width="0.785392" stroke-linecap="round" stroke-linejoin="round"/>
<path d="M96.5866 162.678H43.8867V221.739L96.5866 221.099V162.678Z" fill="white" stroke="#1E1E1E" stroke-width="0.785392" stroke-linecap="round" stroke-linejoin="round"/>
<path d="M75.56 185.057H93.793V177.548H75.56V185.057Z" fill="#64BDFF"/>
<path d="M31.0195 144.802V216.162L43.8882 221.739V162.677L31.0195 144.802Z" fill="white" stroke="#1E1E1E" stroke-width="0.785392" stroke-linecap="round" stroke-linejoin="round"/>
<path d="M67.988 143.086L31.0195 144.802L43.8882 162.678H96.588L67.988 143.086Z" fill="white" stroke="#1E1E1E" stroke-width="0.785392" stroke-linecap="round" stroke-linejoin="round"/>
<path d="M53.6196 144.009L73.7767 162.454H65.8404L48.6797 144.233L53.6196 144.009Z" fill="#64BDFF"/>
<path d="M45.8342 199.626L59.555 196.198L92.4276 204.425C97.6936 205.745 101.354 210.516 101.263 215.943L100.761 245.772C100.623 253.873 93.7078 260.2 85.6261 259.611L41.7109 256.422L45.8342 199.623V199.626Z" fill="white" stroke="#1E1E1E" stroke-width="0.785392" stroke-linecap="round" stroke-linejoin="round"/>
<path d="M56.237 197.03L89.6712 206.212C92.0902 206.875 93.7983 209.031 93.8965 211.536L94.7172 232.53L89.518 232.153L89.1606 212.942C89.1135 210.402 87.4092 208.195 84.9627 207.507L51.6855 198.165L56.237 197.026V197.03Z" fill="#8D8DFF"/>
<path d="M88.2228 203.376L84.7789 202.512C84.7789 202.512 83.7068 190.311 80.2629 189.793C76.815 189.275 77.5021 200.69 77.5021 200.69L73.4731 199.681C73.4731 199.681 73.1708 185.996 79.2969 186.506C85.4268 187.017 88.2267 203.372 88.2267 203.372L88.2228 203.376Z" fill="#1E1E1E"/>
<path d="M69.044 210.425L65.7688 208.913C65.7688 208.913 69.8214 193.716 66.9233 193.037C64.0252 192.357 58.5315 206.644 58.5315 206.644L55.9199 205.717C55.9199 205.717 60.817 189.051 67.1394 190.111C73.4618 191.175 70.6579 206.718 69.0478 210.421L69.044 210.425Z" fill="#1E1E1E"/>
<path d="M45.8362 199.626L42.1016 251.026L69.0248 252.982C76.8002 253.547 83.5586 247.7 84.124 239.928L85.6005 219.606C86.0207 213.83 82.2155 208.595 76.5921 207.209L45.8362 199.63V199.626Z" fill="white" stroke="#1E1E1E" stroke-width="0.785392" stroke-linecap="round" stroke-linejoin="round"/>
<path d="M40.7949 208.344L50.848 185.925L71.4881 242.775L57.563 251.851L40.7949 208.344Z" fill="white" stroke="#1E1E1E" stroke-width="0.785392" stroke-linecap="round" stroke-linejoin="round"/>
<path d="M-3.79743 201.719L50.8502 185.925L40.7971 208.344L-19.2578 227.829L-3.79743 201.719Z" fill="white" stroke="#1E1E1E" stroke-width="0.785392" stroke-linecap="round" stroke-linejoin="round"/>
<path d="M-19.2578 227.829L-3.51067 272.133L57.5652 251.851L40.7971 208.344L-19.2578 227.829Z" fill="white" stroke="#1E1E1E" stroke-width="0.785392" stroke-linecap="round" stroke-linejoin="round"/>
<path d="M6.36719 218.887L19.1573 195.086L24.9417 193.413L13.5732 217.175L6.36719 218.887Z" fill="#F6D307"/>
<path d="M50.4442 176.506L33.248 215.198L40.2222 223.605L62.4803 166.189L50.4442 176.506Z" fill="white" stroke="#1E1E1E" stroke-width="0.785392" stroke-linecap="round" stroke-linejoin="round"/>
<path d="M50.447 176.505L33.2508 215.197L-12.8125 199.721L-9.64332 170.108L17.9669 160.361" fill="white"/>
<path d="M50.447 176.505L33.2508 215.197L-12.8125 199.721L-9.64332 170.108L17.9669 160.361" stroke="#1E1E1E" stroke-width="0.785392" stroke-linecap="round" stroke-linejoin="round"/>
<path d="M31.028 150.14L62.4829 166.189L50.4468 176.505L17.9668 160.362L31.028 150.14Z" fill="white" stroke="#1E1E1E" stroke-width="0.785392" stroke-linecap="round" stroke-linejoin="round"/>
<path d="M9.84622 176.148C25.2512 176.148 37.7395 163.659 37.7395 148.255C37.7395 132.85 25.2512 120.361 9.84622 120.361C-5.55876 120.361 -18.0469 132.85 -18.0469 148.255C-18.0469 163.659 -5.55876 176.148 9.84622 176.148Z" fill="#1E1E1E"/>
<path d="M7.46732 176.148C22.8723 176.148 35.3606 163.659 35.3606 148.255C35.3606 132.85 22.8723 120.361 7.46732 120.361C-7.93766 120.361 -20.4258 132.85 -20.4258 148.255C-20.4258 163.659 -7.93766 176.148 7.46732 176.148Z" fill="white" stroke="#1E1E1E" stroke-width="0.785392" stroke-linecap="round" stroke-linejoin="round"/>
<path d="M5.82422 125.836V131.707" stroke="#1E1E1E" stroke-width="0.785392" stroke-miterlimit="10"/>
<path d="M23.3461 133.042L21.0762 135.174" stroke="#1E1E1E" stroke-width="0.785392" stroke-miterlimit="10"/>
<path d="M30.4223 148.255H24.418" stroke="#1E1E1E" stroke-width="0.785392" stroke-miterlimit="10"/>
<path d="M22.2782 166.535L19.8789 164.536" stroke="#1E1E1E" stroke-width="0.785392" stroke-miterlimit="10"/>
<path d="M7.4668 174.357V167.937" stroke="#1E1E1E" stroke-width="0.785392" stroke-miterlimit="10"/>
<path d="M9.20312 144.383L13.4716 136.71" stroke="#1E1E1E" stroke-width="0.785392" stroke-miterlimit="10"/>
<path d="M10.9824 152.523L22.2136 159.062" stroke="#1E1E1E" stroke-width="0.785392" stroke-miterlimit="10"/>
<path d="M6.66394 151.592C8.06499 151.592 9.20074 150.456 9.20074 149.055C9.20074 147.654 8.06499 146.519 6.66394 146.519C5.2629 146.519 4.12695 147.654 4.12695 149.055C4.12695 150.456 5.2629 151.592 6.66394 151.592Z" fill="#1E1E1E"/>
<path d="M-51.217 163.455H-1.57256L1.22751 253.135H-52.2852L-51.217 163.455Z" fill="white" stroke="#1E1E1E" stroke-width="0.785392" stroke-linecap="round" stroke-linejoin="round"/>
<path d="M-1.57031 163.455L8.65953 151.714L13.8196 247.351L1.22975 253.135L-1.57031 163.455Z" fill="white" stroke="#1E1E1E" stroke-width="0.785392" stroke-linecap="round" stroke-linejoin="round"/>
<path d="M-36.3612 151.714H8.65752L-1.57232 163.455H-51.2168L-36.3612 151.714Z" fill="white" stroke="#1E1E1E" stroke-width="0.785392" stroke-linecap="round" stroke-linejoin="round"/>
<path d="M142.537 159.371H196.301V205.053H140.282L142.537 159.371Z" fill="white" stroke="#1E1E1E" stroke-width="0.785392" stroke-linecap="round" stroke-linejoin="round"/>
<path d="M194.791 174.033H186.145V169.708H194.791V174.033Z" fill="#64BDFF"/>
<path d="M194.792 182.214H142.908V176.856H194.792V182.214Z" fill="#64BDFF"/>
<path d="M134.638 143.393L142.535 159.372L140.28 205.053L129.001 193.399L134.638 143.393Z" fill="white" stroke="#1E1E1E" stroke-width="0.785392" stroke-linecap="round" stroke-linejoin="round"/>
<path d="M196.301 159.372L177.128 143.393H134.64L142.537 159.372H196.301Z" fill="white" stroke="#1E1E1E" stroke-width="0.785392" stroke-linecap="round" stroke-linejoin="round"/>
<path d="M76.7022 143.852H125.516V198.557L76.7022 197.965V143.852Z" fill="white" stroke="#1E1E1E" stroke-width="0.785392" stroke-linecap="round" stroke-linejoin="round"/>
<path d="M96.1774 164.581H79.2891V157.626H96.1774V164.581Z" fill="#8D8DFF"/>
<path d="M137.434 127.295V193.393L125.514 198.558V143.852L137.434 127.295Z" fill="white" stroke="#1E1E1E" stroke-width="0.785392" stroke-linecap="round" stroke-linejoin="round"/>
<path d="M103.191 125.705L137.434 127.295L125.514 143.852H76.7005L103.191 125.705Z" fill="white" stroke="#1E1E1E" stroke-width="0.785392" stroke-linecap="round" stroke-linejoin="round"/>
<path d="M116.501 126.56L97.8299 143.644H105.181L121.076 126.767L116.501 126.56Z" fill="#8D8DFF"/>
<path d="M145.343 182.084L132.634 178.908L102.186 186.528C97.3079 187.751 93.9179 192.17 94.0015 197.197L94.467 224.826C94.5944 232.33 101 238.19 108.485 237.644L149.162 234.691L145.343 182.08V182.084Z" fill="white" stroke="#1E1E1E" stroke-width="0.785392" stroke-linecap="round" stroke-linejoin="round"/>
<path d="M135.71 179.679L104.741 188.184C102.501 188.798 100.919 190.795 100.828 193.116L100.068 212.561L104.883 212.212L105.214 194.418C105.258 192.065 106.837 190.02 109.103 189.384L139.926 180.731L135.71 179.676V179.679Z" fill="#FFB9FF"/>
<path d="M106.078 185.557L109.268 184.757C109.268 184.757 110.261 173.455 113.451 172.975C116.645 172.495 116.008 183.069 116.008 183.069L119.74 182.134C119.74 182.134 120.02 169.458 114.346 169.931C108.668 170.404 106.074 185.553 106.074 185.553L106.078 185.557Z" fill="#1E1E1E"/>
<path d="M123.844 192.087L126.877 190.686C126.877 190.686 123.124 176.61 125.808 175.98C128.492 175.351 133.581 188.584 133.581 188.584L136 187.725C136 187.725 131.464 172.288 125.608 173.271C119.752 174.256 122.349 188.653 123.84 192.083L123.844 192.087Z" fill="#1E1E1E"/>
<path d="M145.342 182.083L148.801 229.692L123.863 231.504C116.661 232.028 110.401 226.612 109.877 219.413L108.51 200.59C108.121 195.239 111.645 190.391 116.854 189.107L145.342 182.087V182.083Z" fill="white" stroke="#1E1E1E" stroke-width="0.785392" stroke-linecap="round" stroke-linejoin="round"/>
<path d="M150.01 190.158L140.698 169.393L121.58 222.051L134.478 230.457L150.01 190.158Z" fill="white" stroke="#1E1E1E" stroke-width="0.785392" stroke-linecap="round" stroke-linejoin="round"/>
<path d="M191.315 184.022L140.697 169.393L150.009 190.158L205.635 208.207L191.315 184.022Z" fill="white" stroke="#1E1E1E" stroke-width="0.785392" stroke-linecap="round" stroke-linejoin="round"/>
<path d="M205.635 208.208L191.049 249.244L134.477 230.458L150.009 190.159L205.635 208.208Z" fill="white" stroke="#1E1E1E" stroke-width="0.785392" stroke-linecap="round" stroke-linejoin="round"/>
<path d="M181.9 199.925L170.053 177.879L164.696 176.329L175.226 198.339L181.9 199.925Z" fill="#F6D307"/>
</svg>
