<svg preserveAspectRatio="none" width="100%" height="100%" overflow="visible" style="display: block;" viewBox="0 0 12 12" fill="none" xmlns="http://www.w3.org/2000/svg">
<path id="Vector" d="M6.125 1.52051C6.45912 2.43302 6.98771 3.26204 7.6748 3.94922C8.36196 4.63637 9.191 5.16582 10.1035 5.5L10.9551 5.8125L10.1035 6.125C9.19105 6.45918 8.36193 6.98768 7.6748 7.6748C6.98768 8.36193 6.45918 9.19105 6.125 10.1035L5.8125 10.9551L5.5 10.1035C5.16582 9.191 4.63637 8.36196 3.94922 7.6748C3.26204 6.98771 2.43302 6.45912 1.52051 6.125L0.666992 5.8125L1.52051 5.5C2.43316 5.16583 3.26198 4.63646 3.94922 3.94922C4.63646 3.26198 5.16583 2.43316 5.5 1.52051L5.8125 0.666992L6.125 1.52051Z" fill="var(--fill-0, #8D8DFF)" stroke="var(--stroke-0, black)"/>
</svg>
