<svg preserveAspectRatio="none" width="100%" height="100%" overflow="visible" style="display: block;" viewBox="0 0 43 43" fill="none" xmlns="http://www.w3.org/2000/svg">
<path id="Vector" d="M21.4326 0.5C21.6422 0.5 21.8469 0.564291 22.0186 0.68457C22.1902 0.804874 22.3201 0.975825 22.3916 1.17285L22.3926 1.17383L23.8467 5.14551C25.0118 8.32737 26.856 11.2173 29.252 13.6133C31.648 16.0093 34.5378 17.8545 37.7197 19.0195L41.6885 20.4727L41.6895 20.4736C41.8865 20.5451 42.0574 20.675 42.1777 20.8467C42.298 21.0183 42.3623 21.223 42.3623 21.4326C42.3623 21.6422 42.298 21.8469 42.1777 22.0186C42.0574 22.1902 41.8865 22.3201 41.6895 22.3916L41.6885 22.3926L37.7197 23.8467C34.5379 25.0118 31.6479 26.856 29.252 29.252C26.856 31.6479 25.0118 34.5379 23.8467 37.7197L22.3926 41.6885L22.3916 41.6895C22.3201 41.8865 22.1902 42.0574 22.0186 42.1777C21.8469 42.298 21.6422 42.3623 21.4326 42.3623C21.223 42.3623 21.0183 42.298 20.8467 42.1777C20.675 42.0574 20.5451 41.8865 20.4736 41.6895L20.4727 41.6885L19.0195 37.7197C17.8545 34.5378 16.0093 31.648 13.6133 29.252C11.3669 27.0056 8.68651 25.2437 5.73828 24.0723L5.14551 23.8467L1.17383 22.3926L1.17285 22.3916L1.03027 22.3271C0.893639 22.2522 0.774796 22.1473 0.68457 22.0186C0.564291 21.8469 0.5 21.6422 0.5 21.4326C0.500011 21.223 0.564279 21.0183 0.68457 20.8467C0.804872 20.675 0.975832 20.5451 1.17285 20.4736L1.17383 20.4727L5.14551 19.0195C8.32743 17.8545 11.2172 16.0093 13.6133 13.6133C15.8597 11.3669 17.6215 8.68652 18.793 5.73828L19.0195 5.14551L20.4727 1.17383L20.4736 1.17285C20.5451 0.975832 20.675 0.804872 20.8467 0.68457C21.0183 0.564279 21.223 0.500011 21.4326 0.5Z" fill="var(--fill-0, #F6D307)" stroke="var(--stroke-0, black)"/>
</svg>
