<svg preserveAspectRatio="none" width="100%" height="100%" overflow="visible" style="display: block;" viewBox="0 0 29 29" fill="none" xmlns="http://www.w3.org/2000/svg">
<path id="Vector" d="M14.4531 0.5C14.561 0.5 14.6665 0.532857 14.7549 0.594727C14.8431 0.656588 14.9104 0.744426 14.9473 0.845703V0.847656L15.9277 3.52539V3.52637C16.7215 5.69416 17.9789 7.66251 19.6113 9.29492C21.1418 10.8254 22.9679 12.0261 24.9766 12.8242L25.3809 12.9785L28.0566 13.959H28.0586C28.1599 13.9958 28.2477 14.0631 28.3096 14.1514C28.3715 14.2397 28.4043 14.3453 28.4043 14.4531C28.4043 14.561 28.3715 14.6665 28.3096 14.7549C28.2477 14.8432 28.1599 14.9104 28.0586 14.9473H28.0566L25.3809 15.9277C23.2129 16.7215 21.2439 17.9788 19.6113 19.6113C17.9788 21.2439 16.7215 23.2129 15.9277 25.3809L14.9473 28.0566V28.0586C14.9104 28.1599 14.8432 28.2477 14.7549 28.3096C14.6665 28.3715 14.561 28.4043 14.4531 28.4043C14.3453 28.4043 14.2397 28.3715 14.1514 28.3096C14.0631 28.2477 13.9958 28.1599 13.959 28.0586V28.0566L12.9785 25.3809C12.1847 23.2129 10.9274 21.2439 9.29492 19.6113C7.66251 17.9789 5.69416 16.7215 3.52637 15.9277H3.52539L0.847656 14.9473H0.845703C0.744426 14.9104 0.656588 14.8431 0.594727 14.7549C0.532857 14.6665 0.5 14.561 0.5 14.4531C0.500021 14.3453 0.532815 14.2397 0.594727 14.1514C0.6566 14.0631 0.744396 13.9958 0.845703 13.959H0.847656L3.52539 12.9785H3.52637C5.69418 12.1847 7.6625 10.9273 9.29492 9.29492C10.9273 7.6625 12.1847 5.69418 12.9785 3.52637V3.52539L13.959 0.847656V0.845703C13.9958 0.744396 14.0631 0.6566 14.1514 0.594727C14.2397 0.532815 14.3453 0.500021 14.4531 0.5Z" fill="var(--fill-0, #8D8DFF)" stroke="var(--stroke-0, black)"/>
</svg>
