<svg width="144" height="41" viewBox="0 0 144 41" fill="none" xmlns="http://www.w3.org/2000/svg">
<path d="M52.9907 17.5971C52.0923 16.6854 51.0103 15.9596 49.7778 15.4352C48.5431 14.9108 47.1734 14.6453 45.7063 14.6453C44.8611 14.6453 44.0534 14.736 43.3033 14.9175C42.5554 15.0989 41.8451 15.3534 41.1901 15.6786C40.5329 16.0039 39.9289 16.3978 39.3912 16.847C39.0703 17.1147 38.7716 17.4001 38.4928 17.7033V8.34338C38.4928 8.17964 38.36 8.04688 38.1963 8.04688H35.3883C35.2246 8.04688 35.0918 8.17964 35.0918 8.34338V34.009C35.0918 34.1728 35.2246 34.3055 35.3883 34.3055H37.8312C37.9883 34.3055 38.1166 34.1838 38.1277 34.0289L38.2804 31.617C38.568 31.9335 38.8844 32.2366 39.2274 32.5243C39.7762 32.9867 40.3913 33.3917 41.0529 33.728C41.7123 34.0643 42.4381 34.3365 43.2104 34.5356C43.9848 34.7348 44.808 34.8366 45.6532 34.8366C47.1203 34.8366 48.4922 34.571 49.7335 34.0466C50.9727 33.5244 52.0591 32.7964 52.9641 31.887C53.8669 30.9776 54.5861 29.8955 55.0972 28.6763C55.6084 27.4549 55.8673 26.1272 55.8673 24.7332C55.8673 23.3392 55.6106 22.0159 55.1061 20.8011C54.6016 19.5863 53.8913 18.5087 52.9929 17.5993L52.9907 17.5971ZM52.4464 24.731C52.4464 25.7422 52.2605 26.687 51.8954 27.5389C51.5303 28.3931 51.0236 29.1388 50.3929 29.7583C49.7601 30.3779 49.01 30.8736 48.1625 31.2276C47.3172 31.5816 46.3923 31.7609 45.4143 31.7609C44.4362 31.7609 43.5268 31.5839 42.6727 31.2364C41.8208 30.889 41.0684 30.3956 40.4356 29.7694C39.8049 29.1432 39.2982 28.3931 38.9309 27.5389C38.5658 26.687 38.3799 25.7422 38.3799 24.731C38.3799 23.7197 38.5658 22.7926 38.9309 21.9407C39.296 21.0866 39.8049 20.3409 40.4422 19.7213C41.0795 19.0995 41.834 18.6061 42.6837 18.252C43.5312 17.898 44.4539 17.7188 45.432 17.7188C46.41 17.7188 47.3327 17.898 48.1802 18.252C49.0277 18.6061 49.7756 19.0995 50.4018 19.7213C51.028 20.3409 51.5303 21.0888 51.8976 21.9429C52.2627 22.7948 52.4486 23.733 52.4486 24.7332L52.4464 24.731Z" fill="#1E1E1E"/>
<path d="M75.9913 15.1516H73.1656C73.0019 15.1516 72.8691 15.2844 72.8691 15.4481V25.1643C72.8691 27.4213 72.369 29.1008 71.3821 30.1563C70.3997 31.2073 68.9592 31.7384 67.096 31.7384C65.2329 31.7384 63.7482 31.2007 62.7856 30.1408C61.8142 29.072 61.323 27.397 61.323 25.1621V15.4459C61.323 15.2822 61.1902 15.1494 61.0265 15.1494H58.2008C58.0371 15.1494 57.9043 15.2822 57.9043 15.4459V25.2528C57.9043 26.8593 58.1189 28.2754 58.5416 29.4637C58.9664 30.6608 59.5882 31.6698 60.3892 32.4641C61.1902 33.2585 62.1727 33.856 63.31 34.2388C64.4363 34.6171 65.7086 34.8097 67.096 34.8097C68.4834 34.8097 69.7558 34.6171 70.8821 34.2388C72.0194 33.856 73.0019 33.2585 73.8029 32.4641C74.6017 31.6698 75.2235 30.6608 75.6505 29.4637C76.0732 28.2754 76.2878 26.8593 76.2878 25.2528V15.4459C76.2878 15.2822 76.155 15.1494 75.9913 15.1494V15.1516Z" fill="#1E1E1E"/>
<path d="M98.7791 8.04688H95.991C95.8273 8.04688 95.6945 8.17964 95.6945 8.34338V17.7166C95.4135 17.4178 95.1104 17.1324 94.7851 16.8647C94.243 16.4155 93.6389 16.0194 92.9905 15.6897C92.34 15.3578 91.6275 15.0989 90.8752 14.9175C90.1206 14.736 89.3152 14.6453 88.481 14.6453C87.0139 14.6453 85.642 14.9108 84.4007 15.4352C83.1615 15.9574 82.0773 16.6854 81.1789 17.5971C80.2805 18.5087 79.5725 19.5863 79.0746 20.8011C78.5767 22.0159 78.3223 23.3392 78.3223 24.7332C78.3223 26.1272 78.5812 27.4549 79.0923 28.6763C79.6034 29.8977 80.3204 30.9776 81.2254 31.887C82.1304 32.7986 83.2169 33.5244 84.456 34.0466C85.6951 34.571 87.0626 34.8366 88.5186 34.8366C89.3661 34.8366 90.1848 34.7348 90.9548 34.5356C91.7204 34.3365 92.444 34.0577 93.1056 33.7081C93.765 33.3585 94.3802 32.9425 94.9289 32.4667C95.2719 32.1702 95.5883 31.856 95.876 31.5285L96.0441 34.0311C96.0552 34.186 96.1835 34.3077 96.3406 34.3077H98.7835C98.9473 34.3077 99.08 34.175 99.08 34.0112V8.3456C99.08 8.18185 98.9473 8.04908 98.7835 8.04908L98.7791 8.04688ZM95.803 24.731C95.803 25.7422 95.6171 26.687 95.252 27.5389C94.8869 28.3909 94.3779 29.141 93.7407 29.7694C93.1034 30.3956 92.3489 30.889 91.5014 31.2387C90.6539 31.5861 89.729 31.7631 88.7509 31.7631C87.7729 31.7631 86.8635 31.5838 86.0116 31.2298C85.1574 30.8758 84.4051 30.3801 83.7723 29.7605C83.1416 29.141 82.6349 28.3953 82.2698 27.5412C81.9047 26.6893 81.7188 25.7444 81.7188 24.7332C81.7188 23.722 81.9047 22.7948 82.2698 21.9429C82.6349 21.0888 83.1394 20.3409 83.7656 19.7213C84.3918 19.1017 85.1419 18.6083 85.9938 18.2543C86.8458 17.9002 87.7751 17.721 88.7509 17.721C89.7268 17.721 90.6362 17.9002 91.4903 18.2543C92.3444 18.6083 93.0968 19.104 93.7296 19.7235C94.3602 20.3431 94.8714 21.091 95.2431 21.9451C95.6149 22.797 95.803 23.7352 95.803 24.7354V24.731Z" fill="#1E1E1E"/>
<path d="M121.558 8.04688H118.77C118.607 8.04688 118.474 8.17964 118.474 8.34338V17.7166C118.193 17.4178 117.89 17.1324 117.564 16.8647C117.022 16.4155 116.418 16.0194 115.77 15.6897C115.119 15.3578 114.407 15.0989 113.654 14.9175C112.9 14.736 112.094 14.6453 111.26 14.6453C109.793 14.6453 108.421 14.9108 107.18 15.4352C105.941 15.9574 104.857 16.6854 103.958 17.5971C103.06 18.5087 102.352 19.5863 101.854 20.8011C101.356 22.0159 101.102 23.3392 101.102 24.7332C101.102 26.1272 101.36 27.4549 101.872 28.6763C102.383 29.8977 103.1 30.9776 104.005 31.887C104.91 32.7986 105.996 33.5244 107.235 34.0466C108.474 34.571 109.842 34.8366 111.298 34.8366C112.145 34.8366 112.964 34.7348 113.734 34.5356C114.5 34.3365 115.223 34.0577 115.885 33.7081C116.544 33.3585 117.159 32.9425 117.708 32.4667C118.051 32.1702 118.368 31.856 118.655 31.5285L118.823 34.0311C118.835 34.186 118.963 34.3077 119.12 34.3077H121.563C121.727 34.3077 121.859 34.175 121.859 34.0112V8.3456C121.859 8.18185 121.727 8.04908 121.563 8.04908L121.558 8.04688ZM118.582 24.731C118.582 25.7422 118.396 26.687 118.031 27.5389C117.666 28.3909 117.157 29.141 116.52 29.7694C115.883 30.3956 115.128 30.889 114.281 31.2387C113.433 31.5861 112.508 31.7631 111.53 31.7631C110.552 31.7631 109.643 31.5838 108.791 31.2298C107.937 30.8758 107.184 30.3801 106.552 29.7605C105.921 29.141 105.414 28.3953 105.049 27.5412C104.684 26.6893 104.498 25.7444 104.498 24.7332C104.498 23.722 104.684 22.7948 105.049 21.9429C105.414 21.0888 105.919 20.3409 106.545 19.7213C107.171 19.1017 107.921 18.6083 108.773 18.2543C109.625 17.9002 110.554 17.721 111.53 17.721C112.506 17.721 113.415 17.9002 114.27 18.2543C115.124 18.6083 115.876 19.104 116.509 19.7235C117.14 20.3431 117.651 21.091 118.022 21.9451C118.394 22.797 118.582 23.7352 118.582 24.7354V24.731Z" fill="#1E1E1E"/>
<path d="M143.342 15.2844C143.287 15.2003 143.194 15.1494 143.095 15.1494H140.087C139.97 15.1494 139.862 15.2202 139.815 15.3286L133.715 29.4969L127.563 15.3286C127.517 15.2202 127.411 15.1494 127.291 15.1494H124.193C124.094 15.1494 124.001 15.2003 123.945 15.2844C123.89 15.3685 123.881 15.4747 123.921 15.5654L131.781 33.5307C131.5 34.1923 131.241 34.7875 131.013 35.3053C130.778 35.8297 130.531 36.2745 130.269 36.6263C130.022 36.9627 129.745 37.2216 129.449 37.3941C129.161 37.5601 128.802 37.6464 128.384 37.6464H125.103C125.023 37.6464 124.948 37.6774 124.892 37.7349C124.837 37.7902 124.806 37.8677 124.806 37.9451L124.824 40.315C124.824 40.4787 124.957 40.6093 125.12 40.6093H128.165C129.143 40.6093 129.977 40.4876 130.646 40.2442C131.325 39.9986 131.94 39.5892 132.473 39.0316C132.996 38.485 133.491 37.7526 133.945 36.8565C134.39 35.9824 134.892 34.8827 135.438 33.5971L143.369 15.5698C143.409 15.4791 143.4 15.3729 143.347 15.2888L143.342 15.2844Z" fill="#1E1E1E"/>
<path d="M21.2247 6.83034C19.1867 6.83034 17.0935 7.61808 15.0024 9.17364L14.405 9.61839L13.1371 8.97891C12.7985 8.80853 10.9885 7.95663 8.70051 7.95663C5.87926 7.95663 3.43197 9.24001 1.80781 11.5678C0.643908 13.234 0.0199147 15.1171 0 17.0134V33.9652C0 34.129 0.132767 34.2617 0.29651 34.2617H29.4848C29.6486 34.2617 29.7813 34.129 29.7813 33.9652V16.2677C29.7813 14.3692 29.2503 12.5414 28.2479 10.9814C26.5264 8.30402 24.0326 6.82812 21.2269 6.82812L21.2247 6.83034ZM11.7165 12.6786C9.96178 14.4333 7.99908 18.5557 7.99908 21.4455C7.99908 23.8176 9.28025 28.3028 14.1284 28.3028C18.6534 28.3028 20.6803 24.6474 20.6803 21.0251C20.6803 17.4028 16.9872 12.5348 16.9496 12.4839L16.693 12.1498L17.0315 11.8975C18.5229 10.7889 19.9324 10.2247 21.2247 10.2247C22.8577 10.2247 24.2959 11.1209 25.3868 12.818C26.0374 13.827 26.3804 15.0197 26.3804 16.2655V30.863H3.42312V17.051C3.43639 15.8296 3.85018 14.5705 4.59145 13.5084C5.57612 12.0967 6.9967 11.351 8.6983 11.351C10.2782 11.351 11.555 11.9838 11.6081 12.0104L12.1214 12.2693L11.7165 12.6742V12.6786ZM14.1284 24.9062C11.9709 24.9062 11.3956 22.7311 11.3956 21.4477C11.3956 19.8568 12.5817 17.3542 13.5686 15.8362C13.8186 15.4534 14.104 15.0949 14.4205 14.7652L14.4536 14.8051C14.6661 15.0573 14.863 15.3206 15.04 15.5994C15.9561 17.0399 17.2815 19.5448 17.2815 21.0251C17.2815 23.4923 16.1331 24.9062 14.1284 24.9062Z" fill="#1E1E1E"/>
<path d="M8.23968 6.56922C9.67797 6.56922 10.8485 5.39868 10.8485 3.96039C10.8485 2.52211 9.67797 1.35156 8.23968 1.35156C6.8014 1.35156 5.63086 2.52211 5.63086 3.96039C5.63086 5.39868 6.8014 6.56922 8.23968 6.56922Z" fill="#1E1E1E"/>
<path d="M21.7846 5.21765C23.2229 5.21765 24.3934 4.04711 24.3934 2.60882C24.3934 1.17054 23.2229 0 21.7846 0C20.3463 0 19.1758 1.17054 19.1758 2.60882C19.1758 4.04711 20.3463 5.21765 21.7846 5.21765Z" fill="#1E1E1E"/>
</svg>
