<svg width="318" height="290" viewBox="0 0 318 290" fill="none" xmlns="http://www.w3.org/2000/svg">
<path d="M299.644 34.4355L310.675 99.7408L256.761 100.628L250.176 43.5107L299.644 34.4355Z" fill="white" stroke="#1E1E1E" stroke-width="0.785392" stroke-linecap="round" stroke-linejoin="round"/>
<path d="M239.857 25.0068L245.375 88.706L256.763 100.628L250.177 43.5107L239.857 25.0068Z" fill="white" stroke="#1E1E1E" stroke-width="0.785392" stroke-linecap="round" stroke-linejoin="round"/>
<path d="M299.645 34.4357L279.005 17L239.857 25.0071L250.177 43.5109L299.645 34.4357Z" fill="white" stroke="#1E1E1E" stroke-width="0.785392" stroke-linecap="round" stroke-linejoin="round"/>
<path d="M292.26 53.0336C295.552 53.0336 298.221 50.3647 298.221 47.0725C298.221 43.7802 295.552 41.1113 292.26 41.1113C288.968 41.1113 286.299 43.7802 286.299 47.0725C286.299 50.3647 288.968 53.0336 292.26 53.0336Z" fill="#F6D307"/>
<path d="M157.439 111.251H99.3945V160.57H159.874L157.439 111.251Z" fill="white" stroke="#1E1E1E" stroke-width="0.785392" stroke-linecap="round" stroke-linejoin="round"/>
<path d="M101.023 127.08H110.357V122.411H101.023V127.08Z" fill="#64BDFF"/>
<path d="M101.021 135.912H157.035V130.128H101.021V135.912Z" fill="#64BDFF"/>
<path d="M165.967 94L157.441 111.251L159.876 160.57L172.054 147.988L165.967 94Z" fill="white" stroke="#1E1E1E" stroke-width="0.785392" stroke-linecap="round" stroke-linejoin="round"/>
<path d="M99.3945 111.251L120.094 94H165.964L157.439 111.251H99.3945Z" fill="white" stroke="#1E1E1E" stroke-width="0.785392" stroke-linecap="round" stroke-linejoin="round"/>
<path d="M240.123 52.3388L260.96 42.8512C260.96 42.8512 261.388 32.0757 263.119 32.0246C264.851 31.9736 266.104 41.63 266.104 41.63C266.104 41.63 275.273 34.8481 276.903 36.6309C278.533 38.4138 270.156 45.875 270.156 45.875C270.156 45.875 281.25 40.0788 282.758 42.4664C284.27 44.854 273.318 51.9422 273.318 51.9422C273.318 51.9422 285.307 46.1695 284.773 51.4945C284.239 56.8194 244.769 66.303 244.769 66.303" fill="white"/>
<path d="M240.123 52.3388L260.96 42.8512C260.96 42.8512 261.388 32.0757 263.119 32.0246C264.851 31.9736 266.104 41.63 266.104 41.63C266.104 41.63 275.273 34.8481 276.903 36.6309C278.533 38.4138 270.156 45.875 270.156 45.875C270.156 45.875 281.25 40.0788 282.758 42.4664C284.27 44.854 273.318 51.9422 273.318 51.9422C273.318 51.9422 285.307 46.1695 284.773 51.4945C284.239 56.8194 244.769 66.303 244.769 66.303" stroke="#1E1E1E" stroke-width="1.17809" stroke-linecap="round" stroke-linejoin="round"/>
<path d="M164.151 41.7363L149.657 27.4383C149.657 27.4383 155.19 19.3212 152.943 16.8865C150.697 14.4557 146.252 22.773 146.252 22.773C146.252 22.773 139.494 15.6063 137.302 16.702C135.111 17.7976 136.953 24.497 141.528 29.8926C141.528 29.8926 134.2 21.8895 131.286 23.6998C128.372 25.5101 135.366 32.9596 138.06 34.7817C138.06 34.7817 126.586 30.5602 127.438 35.3393C128.29 40.1184 136.874 40.4129 136.874 40.4129L155.457 57.7073" fill="white"/>
<path d="M164.151 41.7363L149.657 27.4383C149.657 27.4383 155.19 19.3212 152.943 16.8865C150.697 14.4557 146.252 22.773 146.252 22.773C146.252 22.773 139.494 15.6063 137.302 16.702C135.111 17.7976 136.953 24.497 141.528 29.8926C141.528 29.8926 134.2 21.8895 131.286 23.6998C128.372 25.5101 135.366 32.9596 138.06 34.7817C138.06 34.7817 126.586 30.5602 127.438 35.3393C128.29 40.1184 136.874 40.4129 136.874 40.4129L155.457 57.7073" stroke="#1E1E1E" stroke-width="1.17809" stroke-linecap="round" stroke-linejoin="round"/>
<path d="M170.611 72.873L178.532 142.608L171.24 150.709H200.374V78.4807" fill="white"/>
<path d="M170.611 72.873L178.532 142.608L171.24 150.709H200.374V78.4807" stroke="#1E1E1E" stroke-width="0.840369" stroke-linecap="round" stroke-linejoin="round"/>
<path d="M178.531 142.609L171.238 150.71H200.372V142.558L178.531 142.609Z" fill="#1E1E1E"/>
<path d="M236.68 72.873L228.76 142.608L236.052 150.709H206.918V78.4807" fill="white"/>
<path d="M236.68 72.873L228.76 142.608L236.052 150.709H206.918V78.4807" stroke="#1E1E1E" stroke-width="0.840369" stroke-linecap="round" stroke-linejoin="round"/>
<path d="M228.76 142.609L236.052 150.71H206.918V142.558L228.76 142.609Z" fill="#1E1E1E"/>
<path d="M244.653 10.4301L174.695 1.60475C167.67 0.718475 161.256 5.69525 160.37 12.7207L151.545 82.6787C150.658 89.7041 155.635 96.1178 162.661 97.0041L232.619 105.829C239.644 106.716 246.058 101.739 246.944 94.7135L255.769 24.7555C256.656 17.7301 251.679 11.3164 244.653 10.4301Z" fill="#64BDFF"/>
<path d="M164.151 41.7363L149.657 27.4383C149.657 27.4383 155.19 19.3212 152.943 16.8865C150.697 14.4557 146.252 22.773 146.252 22.773C146.252 22.773 139.494 15.6063 137.302 16.702C135.111 17.7976 136.953 24.497 141.528 29.8926C141.528 29.8926 134.2 21.8895 131.286 23.6998C128.372 25.5101 135.366 32.9596 138.06 34.7817C138.06 34.7817 126.586 30.5602 127.438 35.3393C128.29 40.1184 136.874 40.4129 136.874 40.4129L155.457 57.7073" stroke="#1E1E1E" stroke-width="1.17809" stroke-linecap="round" stroke-linejoin="round"/>
<path d="M209.961 28.3213C210.091 26.9665 211.292 25.9729 212.647 26.0986C214.002 26.2282 214.995 27.4298 214.87 28.7846" stroke="#1E1E1E" stroke-width="1.17809" stroke-linecap="round" stroke-linejoin="round"/>
<path d="M193.596 26.7666C193.725 25.4118 194.927 24.4183 196.282 24.5439C197.637 24.6735 198.63 25.8752 198.504 27.23" stroke="#1E1E1E" stroke-width="1.17809" stroke-linecap="round" stroke-linejoin="round"/>
<path d="M208.08 33.0923C207.848 35.5113 205.7 37.2863 203.281 37.0585C200.862 36.8268 199.087 34.6788 199.315 32.2598" stroke="#1E1E1E" stroke-width="1.17809" stroke-linecap="round" stroke-linejoin="round"/>
<path d="M240.123 52.3388L260.96 42.8512C260.96 42.8512 261.388 32.0757 263.119 32.0246C264.851 31.9736 266.104 41.63 266.104 41.63C266.104 41.63 275.273 34.8481 276.903 36.6309C278.533 38.4138 270.156 45.875 270.156 45.875C270.156 45.875 281.25 40.0788 282.758 42.4664C284.27 44.854 273.318 51.9422 273.318 51.9422C273.318 51.9422 285.307 46.1695 284.773 51.4945C284.239 56.8194 244.769 66.303 244.769 66.303" stroke="#1E1E1E" stroke-width="1.17809" stroke-linecap="round" stroke-linejoin="round"/>
<path d="M311.111 88.5891L326.477 83.543L364.659 90.207C370.774 91.2751 375.348 96.4155 375.694 102.616L378.545 153.729H311.115V88.593L311.111 88.5891Z" fill="white" stroke="#1E1E1E" stroke-width="0.785392" stroke-linecap="round" stroke-linejoin="round"/>
<path d="M322.755 84.7637L361.66 92.4684C364.475 93.026 366.604 95.3429 366.922 98.1939L369.596 122.074H363.631L361.628 100.189C361.365 97.2946 359.237 94.9188 356.39 94.3376L317.654 86.4366L322.751 84.7637H322.755Z" fill="#F6D307"/>
<path d="M311.111 88.5889V147.532H358.129V108.082C358.129 101.458 353.353 95.7988 346.827 94.6874L311.111 88.5889Z" fill="white" stroke="#1E1E1E" stroke-width="0.785392" stroke-linecap="round" stroke-linejoin="round"/>
<path d="M385.759 157.184L362.857 208.709L301.514 188.101L305.735 148.662L342.503 135.684" fill="white"/>
<path d="M385.759 157.184L362.857 208.709L301.514 188.101L305.735 148.662L342.503 135.684" stroke="#1E1E1E" stroke-width="0.785392" stroke-linecap="round" stroke-linejoin="round"/>
<path d="M150.997 101.379L173.895 152.905L164.607 164.1L134.967 87.6387L150.997 101.379Z" fill="white" stroke="#1E1E1E" stroke-width="0.785392" stroke-linecap="round" stroke-linejoin="round"/>
<path d="M150.994 101.379L173.892 152.905L235.239 132.296L231.018 92.8575L194.25 79.8789" fill="white"/>
<path d="M150.994 101.379L173.892 152.905L235.239 132.296L231.018 92.8575L194.25 79.8789" stroke="#1E1E1E" stroke-width="0.785392" stroke-linecap="round" stroke-linejoin="round"/>
<path d="M176.856 66.2676L134.967 87.6381L150.997 101.379L194.252 79.8784L176.856 66.2676Z" fill="white" stroke="#1E1E1E" stroke-width="0.785392" stroke-linecap="round" stroke-linejoin="round"/>
<path d="M187.492 78.1816H237.133L239.936 167.862H186.424L187.492 78.1816Z" fill="white" stroke="#1E1E1E" stroke-width="0.785392" stroke-linecap="round" stroke-linejoin="round"/>
<path d="M237.131 78.182L247.364 66.4404L252.525 162.081L239.935 167.862L237.131 78.182Z" fill="white" stroke="#1E1E1E" stroke-width="0.785392" stroke-linecap="round" stroke-linejoin="round"/>
<path d="M202.344 66.4404H247.363L237.129 78.182H187.488L202.344 66.4404Z" fill="white" stroke="#1E1E1E" stroke-width="0.785392" stroke-linecap="round" stroke-linejoin="round"/>
<path d="M182.722 122.121C182.722 122.121 180.177 110.124 173.238 102.765" stroke="#1E1E1E" stroke-width="0.785392" stroke-miterlimit="10"/>
<path d="M174.107 103.743C174.107 103.743 170.977 91.6205 167.545 92.6179C164.113 93.6114 172.799 103.138 174.107 103.743Z" fill="#98D81E"/>
<path d="M174.526 104.434C174.526 104.434 183.33 95.5311 180.719 93.0964C178.107 90.6617 174.377 103 174.526 104.434Z" fill="#98D81E"/>
<path d="M176.432 106.974C176.432 106.974 187.455 101.037 185.668 97.9421C183.881 94.8477 176.71 105.56 176.432 106.974Z" fill="#98D81E"/>
<path d="M178.477 110.398C178.477 110.398 190.599 107.268 189.602 103.836C188.608 100.404 179.081 109.09 178.477 110.398Z" fill="#98D81E"/>
<path d="M180.943 115.629C180.943 115.629 193.066 112.499 192.068 109.067C191.071 105.635 181.548 114.322 180.943 115.629Z" fill="#98D81E"/>
<path d="M181.834 118.688C181.834 118.688 194.353 118.822 194.286 115.248C194.22 111.675 182.761 117.581 181.834 118.688Z" fill="#98D81E"/>
<path d="M174.508 104.311C174.508 104.311 162.259 106.895 161.623 103.381C160.987 99.8659 173.381 103.412 174.508 104.311Z" fill="#98D81E"/>
<path d="M176.426 107.009C176.426 107.009 165.466 113.061 163.832 109.884C162.199 106.707 175.087 106.475 176.426 107.009Z" fill="#98D81E"/>
<path d="M178.582 110.411C178.582 110.411 169.389 118.909 167.041 116.215C164.697 113.521 177.153 110.214 178.582 110.411Z" fill="#98D81E"/>
<path d="M180.942 115.629C180.942 115.629 171.749 124.127 169.401 121.433C167.053 118.74 179.513 115.433 180.942 115.629Z" fill="#98D81E"/>
<path d="M181.811 118.681C181.811 118.681 175.147 129.28 172.178 127.289C169.213 125.298 180.378 118.861 181.811 118.681Z" fill="#98D81E"/>
<path d="M169.615 121.484H194.375L190.448 135.213H173.393L169.615 121.484Z" fill="white" stroke="#1E1E1E" stroke-width="0.785392" stroke-linecap="round" stroke-linejoin="round"/>
<path d="M158.961 135.547L144.82 135.354L114.712 150.897C109.889 153.387 107.419 158.873 108.75 164.135L119.742 207.52L175.996 189.884L158.961 135.543V135.547Z" fill="white" stroke="#1E1E1E" stroke-width="0.785392" stroke-linecap="round" stroke-linejoin="round"/>
<path d="M148.243 135.401L117.805 152.005C115.602 153.206 114.432 155.696 114.911 158.158L118.924 178.782L123.9 177.223L119.843 158.441C119.309 155.959 120.464 153.418 122.682 152.189L152.932 135.468L148.239 135.405L148.243 135.401Z" fill="#FFB9FF"/>
<path d="M118.563 148.915L121.716 147.285C121.716 147.285 119.961 135.166 123.196 133.87C126.432 132.575 128.384 143.845 128.384 143.845L132.075 141.94C132.075 141.94 129.232 128.549 123.385 130.454C117.538 132.359 118.559 148.919 118.559 148.919L118.563 148.915Z" fill="#1E1E1E"/>
<path d="M138.845 151.381L141.684 149.158C141.684 149.158 134.254 135.296 136.921 133.969C139.587 132.642 148.211 145.29 148.211 145.29L150.543 143.79C150.543 143.79 141.955 128.691 136.045 131.173C130.135 133.655 136.426 148.145 138.841 151.381H138.845Z" fill="#1E1E1E"/>
<path d="M158.96 135.547L174.377 184.72L135.151 197.016L124.835 164.104C123.103 158.579 125.604 152.61 130.76 149.971L158.96 135.543V135.547Z" fill="white" stroke="#1E1E1E" stroke-width="0.785392" stroke-linecap="round" stroke-linejoin="round"/>
<path d="M170.718 187.457H112.674V236.776H173.153L170.718 187.457Z" fill="white" stroke="#1E1E1E" stroke-width="0.785392" stroke-linecap="round" stroke-linejoin="round"/>
<path d="M114.302 203.286H123.637V198.617H114.302V203.286Z" fill="#64BDFF"/>
<path d="M114.3 212.118H170.314V206.334H114.3V212.118Z" fill="#64BDFF"/>
<path d="M179.246 170.206L170.721 187.457L173.155 236.776L185.333 224.194L179.246 170.206Z" fill="white" stroke="#1E1E1E" stroke-width="0.785392" stroke-linecap="round" stroke-linejoin="round"/>
<path d="M112.674 187.457L133.373 170.206H179.244L170.718 187.457H112.674Z" fill="white" stroke="#1E1E1E" stroke-width="0.785392" stroke-linecap="round" stroke-linejoin="round"/>
<path d="M223.224 146.562L234.255 211.863L180.341 212.754L173.76 155.637L223.224 146.562Z" fill="white" stroke="#1E1E1E" stroke-width="0.785392" stroke-linecap="round" stroke-linejoin="round"/>
<path d="M163.439 137.133L168.953 200.832L180.341 212.754L173.76 155.637L163.439 137.133Z" fill="white" stroke="#1E1E1E" stroke-width="0.785392" stroke-linecap="round" stroke-linejoin="round"/>
<path d="M223.223 146.562L202.583 129.126L163.439 137.133L173.76 155.637L223.223 146.562Z" fill="white" stroke="#1E1E1E" stroke-width="0.785392" stroke-linecap="round" stroke-linejoin="round"/>
<path d="M195.63 137.365L177.217 135.421C177.162 135.417 177.115 135.449 177.095 135.496L170.498 153.273C170.478 153.324 170.498 153.379 170.541 153.411L185.766 163.947C185.797 163.966 185.833 163.974 185.868 163.962C185.903 163.951 185.931 163.927 185.943 163.892L189.281 154.895C189.638 155.586 190.898 157.459 194.496 158.794C198.866 160.416 200.724 160.244 200.802 160.236C200.845 160.232 200.885 160.2 200.9 160.161L204.627 150.116C204.643 150.069 204.627 150.018 204.592 149.986C204.572 149.971 202.758 148.431 198.693 146.923C195.316 145.671 193.109 146.264 192.383 146.538L195.729 137.522C195.74 137.487 195.736 137.451 195.717 137.42C195.697 137.389 195.666 137.369 195.63 137.365ZM204.376 150.116L201.018 159.164C200.17 159.223 199.322 159.175 198.501 159.026C198.438 159.014 198.371 159.058 198.364 159.12C198.352 159.183 198.395 159.246 198.458 159.258C199.263 159.407 200.095 159.45 200.928 159.403L200.704 160.012C200.323 160.024 198.415 160.004 194.574 158.579C193.965 158.355 193.427 158.111 192.948 157.86C192.956 157.852 192.96 157.844 192.964 157.832L197.099 146.692C197.574 146.805 198.073 146.951 198.607 147.147C202.212 148.486 204.022 149.841 204.372 150.116H204.376ZM195.807 146.464C196.141 146.499 196.494 146.558 196.871 146.637L192.748 157.746C192.402 157.557 192.088 157.365 191.806 157.173C191.825 157.161 191.841 157.141 191.853 157.118L195.807 146.46V146.464ZM191.633 157.039C191.633 157.039 191.633 157.047 191.633 157.055C190.019 155.908 189.493 154.805 189.398 154.589L189.634 153.953C189.944 154.475 190.353 154.923 190.832 155.252C190.887 155.288 190.957 155.276 190.997 155.221C191.001 155.213 191.008 155.205 191.008 155.193C191.028 155.142 191.008 155.087 190.965 155.056C190.478 154.718 190.062 154.251 189.764 153.701C189.756 153.689 189.748 153.678 189.736 153.67L189.858 153.344C190.015 153.548 190.192 153.725 190.396 153.87C190.447 153.909 190.521 153.898 190.561 153.843C190.569 153.835 190.573 153.823 190.576 153.815C190.596 153.768 190.576 153.709 190.533 153.678C190.309 153.517 190.117 153.312 189.956 153.077L192.273 146.837C192.497 146.735 193.655 146.264 195.568 146.432L191.633 157.035V157.039ZM185.778 163.668L174.983 156.199C174.983 156.199 174.982 156.163 174.975 156.144C174.617 155.366 175.293 154.64 175.509 154.439C175.705 154.255 175.933 154.082 176.153 153.913C176.49 153.654 176.844 153.387 177.107 153.057C177.806 152.185 177.81 151.035 177.814 149.927C177.814 148.828 177.822 147.791 178.426 146.982C178.693 146.625 179.063 146.346 179.447 146.048C179.742 145.82 180.048 145.588 180.304 145.317C180.606 144.995 180.838 144.622 180.991 144.214C181.156 143.766 181.226 143.283 181.183 142.796C181.16 142.498 181.093 142.191 181.03 141.897C180.912 141.347 180.802 140.825 180.928 140.338C181.089 139.725 181.611 139.262 182.118 138.81C182.228 138.712 182.338 138.618 182.44 138.52C183.253 137.766 183.555 137 183.331 136.301L195.45 137.581L185.77 163.668H185.778ZM177.284 135.665L180.029 135.955C180.021 135.975 180.017 135.998 180.025 136.022C180.166 136.584 179.911 137.22 179.271 137.923C179.184 138.017 179.094 138.111 179.008 138.205C178.568 138.669 178.112 139.144 177.94 139.768C177.798 140.267 177.861 140.778 177.92 141.276C177.951 141.536 177.983 141.803 177.983 142.058C177.987 142.843 177.708 143.636 177.213 144.245C177.009 144.493 176.765 144.72 176.53 144.936C176.216 145.227 175.894 145.525 175.646 145.89C175.092 146.715 175.022 147.74 174.955 148.73C174.884 149.751 174.821 150.717 174.272 151.494C174.06 151.793 173.797 152.036 173.518 152.291C173.333 152.46 173.145 152.633 172.972 152.826C172.52 153.324 172.304 153.886 172.351 154.377L170.757 153.273L177.288 135.669L177.284 135.665ZM183.099 136.324C183.327 136.953 183.052 137.632 182.283 138.347C182.177 138.445 182.071 138.539 181.961 138.633C181.427 139.105 180.873 139.6 180.7 140.275C180.559 140.813 180.68 141.386 180.798 141.94C180.861 142.227 180.924 142.525 180.948 142.808C181.022 143.668 180.724 144.52 180.135 145.148C179.891 145.404 179.593 145.635 179.306 145.855C178.921 146.15 178.529 146.452 178.238 146.833C177.586 147.705 177.582 148.828 177.578 149.916C177.578 151.035 177.57 152.095 176.926 152.9C176.679 153.21 176.353 153.458 176.011 153.717C175.787 153.886 175.556 154.062 175.348 154.259C174.782 154.789 174.547 155.413 174.676 155.975L172.622 154.553C172.473 154.086 172.666 153.497 173.141 152.971C173.306 152.79 173.49 152.617 173.671 152.452C173.95 152.197 174.236 151.934 174.46 151.616C175.049 150.783 175.12 149.743 175.187 148.73C175.253 147.772 175.32 146.778 175.839 146.004C176.066 145.663 176.369 145.384 176.687 145.093C176.93 144.869 177.178 144.638 177.39 144.379C177.641 144.068 177.841 143.715 177.983 143.338C178.136 142.922 178.218 142.478 178.214 142.042C178.214 141.771 178.179 141.5 178.148 141.233C178.089 140.738 178.034 140.271 178.159 139.815C178.32 139.25 178.752 138.791 179.173 138.351C179.263 138.256 179.353 138.162 179.44 138.068C180.131 137.31 180.402 136.607 180.252 135.967L183.092 136.266C183.092 136.266 183.092 136.297 183.099 136.313V136.324Z" fill="#1E1E1E" stroke="#1E1E1E" stroke-width="0.785392" stroke-linecap="round" stroke-linejoin="round"/>
<path d="M173.76 155.637L183.573 176.995L231.105 164.362L223.224 146.562L173.76 155.637Z" fill="white" stroke="#1E1E1E" stroke-width="0.785392" stroke-linecap="round" stroke-linejoin="round"/>
<path d="M163.441 137.133L158.635 155.637L170.718 173.524L173.761 155.637L163.441 137.133Z" fill="white" stroke="#1E1E1E" stroke-width="0.785392" stroke-linecap="round" stroke-linejoin="round"/>
<path d="M251.809 169.68L261.866 147.261L282.506 204.111L268.581 213.187L251.809 169.68Z" fill="white" stroke="#1E1E1E" stroke-width="0.785392" stroke-linecap="round" stroke-linejoin="round"/>
<path d="M207.216 163.055L261.864 147.261L251.807 169.68L191.756 189.165L207.216 163.055Z" fill="white" stroke="#1E1E1E" stroke-width="0.785392" stroke-linecap="round" stroke-linejoin="round"/>
<path d="M191.756 189.165L207.503 233.469L268.579 213.186L251.807 169.68L191.756 189.165Z" fill="white" stroke="#1E1E1E" stroke-width="0.785392" stroke-linecap="round" stroke-linejoin="round"/>
<path d="M217.379 180.223L230.169 156.422L235.953 154.749L224.585 178.511L217.379 180.223Z" fill="#F6D307"/>
<path d="M314.595 218.326L369.243 202.532L359.19 224.951L299.135 244.437L314.595 218.326Z" fill="white" stroke="#1E1E1E" stroke-width="0.785392" stroke-linecap="round" stroke-linejoin="round"/>
<path d="M299.135 244.437L314.882 288.741L375.958 268.458L359.19 224.951L299.135 244.437Z" fill="white" stroke="#1E1E1E" stroke-width="0.785392" stroke-linecap="round" stroke-linejoin="round"/>
<path d="M224.249 202.054L208.64 197.812L170.858 206.452C164.807 207.834 160.507 213.21 160.483 219.415L160.295 270.607L227.634 267.1L224.245 202.05L224.249 202.054Z" fill="white" stroke="#1E1E1E" stroke-width="0.785392" stroke-linecap="round" stroke-linejoin="round"/>
<path d="M212.418 198.842L173.969 208.557C171.189 209.26 169.182 211.683 169.013 214.546L167.584 238.535L173.537 238.225L174.397 216.266C174.511 213.364 176.514 210.878 179.326 210.151L217.598 200.248L212.418 198.842Z" fill="#FFB9FF"/>
<path d="M177.767 204.732L179.648 204.441L178.957 171.243L189.1 167.96L190.769 201.9L192.647 201.468L191.088 165.219L176.719 169.11L177.767 204.732Z" fill="#1E1E1E"/>
<path d="M175.936 177.97L179.541 177.145L179.395 171.219L188.353 168.317L188.698 174.997L191.981 173.85L191.51 164.861L175.924 168.965L175.936 177.97Z" fill="#1E1E1E" stroke="#1E1E1E" stroke-width="1.17809" stroke-linecap="round" stroke-linejoin="round"/>
<path d="M224.249 202.054L227.316 260.919L180.362 263.365L178.312 223.966C177.966 217.353 182.443 211.451 188.903 210.002L224.253 202.054H224.249Z" fill="white" stroke="#1E1E1E" stroke-width="0.785392" stroke-linecap="round" stroke-linejoin="round"/>
<path d="M154.623 232.869L190.653 214.451L233.849 227.532L220.282 244.61L154.623 232.869Z" fill="white" stroke="#1E1E1E" stroke-width="0.785392" stroke-linecap="round" stroke-linejoin="round"/>
<path d="M154.623 232.868V282.513H220.282V244.61L154.623 232.868Z" fill="white" stroke="#1E1E1E" stroke-width="0.785392" stroke-linecap="round" stroke-linejoin="round"/>
<path d="M189.851 249.239H159.885V259.292H189.851V249.239Z" fill="#F6D307"/>
<path d="M368.84 193.112L351.643 231.805L305.58 216.329L308.749 186.715L336.36 176.969" fill="white"/>
<path d="M368.84 193.112L351.643 231.805L305.58 216.329L308.749 186.715L336.36 176.969" stroke="#1E1E1E" stroke-width="0.785392" stroke-linecap="round" stroke-linejoin="round"/>
<path d="M328.239 192.755C343.644 192.755 356.132 180.267 356.132 164.862C356.132 149.457 343.644 136.969 328.239 136.969C312.834 136.969 300.346 149.457 300.346 164.862C300.346 180.267 312.834 192.755 328.239 192.755Z" fill="#1E1E1E"/>
<path d="M325.86 192.755C341.265 192.755 353.753 180.267 353.753 164.862C353.753 149.457 341.265 136.969 325.86 136.969C310.455 136.969 297.967 149.457 297.967 164.862C297.967 180.267 310.455 192.755 325.86 192.755Z" fill="white" stroke="#1E1E1E" stroke-width="0.785392" stroke-linecap="round" stroke-linejoin="round"/>
<path d="M305.576 151.781L307.575 154.852" stroke="#1E1E1E" stroke-width="0.785392" stroke-miterlimit="10"/>
<path d="M267.176 180.062H316.82L319.62 269.742H266.107L267.176 180.062Z" fill="white" stroke="#1E1E1E" stroke-width="0.785392" stroke-linecap="round" stroke-linejoin="round"/>
<path d="M313.884 184.87H284.393V199.95H313.884V184.87Z" fill="#FFB9FF"/>
<path d="M316.822 180.063L327.052 168.321L332.212 263.958L319.622 269.743L316.822 180.063Z" fill="white" stroke="#1E1E1E" stroke-width="0.785392" stroke-linecap="round" stroke-linejoin="round"/>
<path d="M282.031 168.321H327.05L316.82 180.063H267.176L282.031 168.321Z" fill="white" stroke="#1E1E1E" stroke-width="0.785392" stroke-linecap="round" stroke-linejoin="round"/>
<path d="M142.773 252.004C142.773 252.004 139.903 238.483 132.084 230.193" stroke="#1E1E1E" stroke-width="0.785392" stroke-miterlimit="10"/>
<path d="M133.066 231.293C133.066 231.293 129.536 217.631 125.671 218.754C121.803 219.873 131.593 230.61 133.066 231.293Z" fill="#98D81E"/>
<path d="M133.542 232.074C133.542 232.074 143.465 222.045 140.52 219.296C137.575 216.551 133.373 230.457 133.542 232.074Z" fill="#98D81E"/>
<path d="M135.688 234.934C135.688 234.934 148.108 228.242 146.094 224.755C144.079 221.268 135.998 233.34 135.688 234.934Z" fill="#98D81E"/>
<path d="M137.986 238.793C137.986 238.793 151.648 235.263 150.525 231.399C149.406 227.531 138.67 237.321 137.986 238.793Z" fill="#98D81E"/>
<path d="M140.77 244.688C140.77 244.688 154.431 241.158 153.308 237.294C152.189 233.425 141.453 243.215 140.77 244.688Z" fill="#98D81E"/>
<path d="M141.777 248.136C141.777 248.136 155.887 248.286 155.812 244.261C155.738 240.235 142.822 246.892 141.777 248.136Z" fill="#98D81E"/>
<path d="M133.511 231.933C133.511 231.933 119.704 234.843 118.989 230.884C118.275 226.922 132.243 230.92 133.511 231.933Z" fill="#98D81E"/>
<path d="M135.673 234.977C135.673 234.977 123.323 241.798 121.481 238.216C119.64 234.635 134.165 234.376 135.673 234.977Z" fill="#98D81E"/>
<path d="M138.102 238.809C138.102 238.809 127.739 248.383 125.096 245.348C122.453 242.312 136.492 238.586 138.102 238.809Z" fill="#98D81E"/>
<path d="M140.768 244.687C140.768 244.687 130.405 254.261 127.762 251.226C125.119 248.19 139.158 244.464 140.768 244.687Z" fill="#98D81E"/>
<path d="M141.744 248.128C141.744 248.128 134.232 260.07 130.89 257.828C127.548 255.585 140.134 248.332 141.744 248.128Z" fill="#98D81E"/>
<path d="M128.004 251.289H155.909L151.483 266.761H132.265L128.004 251.289Z" fill="white" stroke="#1E1E1E" stroke-width="0.785392" stroke-linecap="round" stroke-linejoin="round"/>
<path d="M280.089 168.718C279.523 166.22 278.761 163.778 277.831 161.394C277.681 161.013 277.289 159.776 276.967 159.631C276.578 159.458 275.926 159.438 275.435 159.242C271.06 157.502 272.832 151.863 272.462 148.235C272.494 147.383 272.957 147.489 273.558 147.787C274.402 148.207 275.847 149.535 276.641 149.766C277.002 149.872 280.191 149.868 280.607 149.782C281.267 149.644 282.904 148.333 283.619 147.924C284.334 147.516 284.864 147.159 284.962 148.301C285.115 150.108 284.97 152.405 284.962 154.266C284.962 154.812 284.852 155.358 284.985 155.9C286.694 156.454 288.469 156.827 290.181 157.369C292.733 158.178 294.308 159.591 295.211 162.144C296.841 166.735 295.321 171.211 289.988 171.474C288.367 171.553 285.861 171.616 284.279 171.474C283.163 171.376 283.163 170.061 283.646 169.295C283.851 168.973 284.353 168.714 284.051 168.239C283.835 167.901 283.521 168.097 283.324 168.333C282.527 169.287 282.272 171.097 280.811 171.27C280.43 171.313 279.393 171.329 279.028 171.27C278.529 171.192 278.153 170.567 278.153 170.088C278.153 169.044 279.142 168.553 280.081 168.71L280.089 168.718Z" fill="#1E1E1E"/>
<path d="M274.726 153.87C274.353 154.275 274.86 155.021 275.237 155.272C275.897 155.712 276.823 155.696 277.483 155.248C277.86 154.993 278.308 154.369 277.974 153.945C277.401 153.206 277.059 154.518 276.466 154.557C275.728 154.608 275.637 153.862 275.284 153.748C275.095 153.686 274.864 153.717 274.723 153.866L274.726 153.87Z" fill="white"/>
<path d="M279.821 153.732C279.31 153.835 279.436 154.463 279.632 154.793C280.241 155.826 282.039 155.857 282.711 154.899C283.029 154.447 283.174 153.568 282.369 153.725C281.981 153.799 281.878 154.659 281.093 154.553C280.516 154.475 280.453 153.607 279.821 153.732Z" fill="white"/>
<path d="M294.785 166.307C294.785 166.307 300.267 173.587 290.826 173.587C281.386 173.587 283.616 176.32 283.616 176.32" stroke="#1E1E1E" stroke-width="1.96348" stroke-linecap="round" stroke-linejoin="round"/>
<path d="M268.712 231.583H217.822V274.819H270.848L268.712 231.583Z" fill="white" stroke="#1E1E1E" stroke-width="0.785392" stroke-linecap="round" stroke-linejoin="round"/>
<path d="M219.247 258.251H245.346V241.365H219.247V258.251Z" fill="#8D8DFF"/>
<path d="M276.184 216.456L268.711 231.583L270.847 274.819L281.521 263.788L276.184 216.456Z" fill="white" stroke="#1E1E1E" stroke-width="0.785392" stroke-linecap="round" stroke-linejoin="round"/>
<path d="M217.822 231.583L235.973 216.456H276.185L268.712 231.583H217.822Z" fill="white" stroke="#1E1E1E" stroke-width="0.785392" stroke-linecap="round" stroke-linejoin="round"/>
<path d="M248.628 245.096C256.091 245.096 262.141 239.046 262.141 231.583C262.141 224.12 256.091 218.07 248.628 218.07C241.165 218.07 235.115 224.12 235.115 231.583C235.115 239.046 241.165 245.096 248.628 245.096Z" fill="white" stroke="#1E1E1E" stroke-width="0.785392" stroke-linecap="round" stroke-linejoin="round"/>
<path d="M248.627 237.913C252.123 237.913 254.957 235.079 254.957 231.583C254.957 228.087 252.123 225.253 248.627 225.253C245.131 225.253 242.297 228.087 242.297 231.583C242.297 235.079 245.131 237.913 248.627 237.913Z" fill="white" stroke="#1E1E1E" stroke-width="0.785392" stroke-linecap="round" stroke-linejoin="round"/>
<path d="M236.679 247.318C244.141 247.318 250.191 241.268 250.191 233.806C250.191 226.343 244.141 220.293 236.679 220.293C229.216 220.293 223.166 226.343 223.166 233.806C223.166 241.268 229.216 247.318 236.679 247.318Z" fill="white" stroke="#1E1E1E" stroke-width="0.785392" stroke-linecap="round" stroke-linejoin="round"/>
<path d="M236.682 240.136C240.178 240.136 243.012 237.302 243.012 233.806C243.012 230.31 240.178 227.476 236.682 227.476C233.186 227.476 230.352 230.31 230.352 233.806C230.352 237.302 233.186 240.136 236.682 240.136Z" fill="white" stroke="#1E1E1E" stroke-width="0.785392" stroke-linecap="round" stroke-linejoin="round"/>
<path d="M217.821 231.583L210.604 247.774H262.062L268.711 231.583H217.821Z" fill="white" stroke="#1E1E1E" stroke-width="0.785392" stroke-linecap="round" stroke-linejoin="round"/>
<path d="M235.973 216.456L222.378 221.404L209.678 233.636L217.822 231.583L235.973 216.456Z" fill="white" stroke="#1E1E1E" stroke-width="0.785392" stroke-linecap="round" stroke-linejoin="round"/>
<path d="M268.711 231.583L278.787 244.381L286.3 228.025L276.184 216.456L268.711 231.583Z" fill="white" stroke="#1E1E1E" stroke-width="0.785392" stroke-linecap="round" stroke-linejoin="round"/>
<path d="M116.235 163.592H63.5352V222.653L116.235 222.013V163.592Z" fill="white" stroke="#1E1E1E" stroke-width="0.785392" stroke-linecap="round" stroke-linejoin="round"/>
<path d="M95.2085 185.971H113.441V178.462H95.2085V185.971Z" fill="#8D8DFF"/>
<path d="M50.668 145.716V217.077L63.5366 222.653V163.591L50.668 145.716Z" fill="white" stroke="#1E1E1E" stroke-width="0.785392" stroke-linecap="round" stroke-linejoin="round"/>
<path d="M87.6364 144L50.668 145.716L63.5366 163.592H116.236L87.6364 144Z" fill="white" stroke="#1E1E1E" stroke-width="0.785392" stroke-linecap="round" stroke-linejoin="round"/>
<path d="M73.2681 144.923L93.4252 163.368H85.4888L68.3281 145.147L73.2681 144.923Z" fill="#8D8DFF"/>
<path d="M65.4846 200.541L79.2054 197.112L112.078 205.339C117.344 206.659 121.004 211.43 120.914 216.857L120.411 246.686C120.274 254.788 113.358 261.114 105.277 260.525L61.3613 257.336L65.4846 200.537V200.541Z" fill="white" stroke="#1E1E1E" stroke-width="0.785392" stroke-linecap="round" stroke-linejoin="round"/>
<path d="M75.8874 197.944L109.322 207.126C111.741 207.789 113.449 209.945 113.547 212.451L114.368 233.444L109.168 233.067L108.811 213.856C108.764 211.316 107.06 209.109 104.613 208.421L71.3359 199.079L75.8874 197.94V197.944Z" fill="#FFB9FF"/>
<path d="M107.873 204.29L104.429 203.426C104.429 203.426 103.357 191.225 99.9133 190.707C96.4654 190.189 97.1525 201.604 97.1525 201.604L93.1235 200.595C93.1235 200.595 92.8212 186.91 98.9472 187.42C105.077 187.931 107.877 204.286 107.877 204.286L107.873 204.29Z" fill="#1E1E1E"/>
<path d="M88.6944 211.339L85.4192 209.827C85.4192 209.827 89.4718 194.63 86.5737 193.951C83.6756 193.271 78.1819 207.558 78.1819 207.558L75.5703 206.631C75.5703 206.631 80.4674 189.965 86.7898 191.025C93.1122 192.089 90.3083 207.632 88.6982 211.335L88.6944 211.339Z" fill="#1E1E1E"/>
<path d="M65.4866 200.54L61.752 251.94L88.6752 253.896C96.4506 254.461 103.209 248.614 103.774 240.842L105.251 220.52C105.671 214.744 101.866 209.509 96.2425 208.123L65.4866 200.544V200.54Z" fill="white" stroke="#1E1E1E" stroke-width="0.785392" stroke-linecap="round" stroke-linejoin="round"/>
<path d="M60.4453 209.258L70.4984 186.839L91.1385 243.689L77.2134 252.765L60.4453 209.258Z" fill="white" stroke="#1E1E1E" stroke-width="0.785392" stroke-linecap="round" stroke-linejoin="round"/>
<path d="M15.853 202.633L70.5006 186.839L60.4475 209.258L0.392578 228.743L15.853 202.633Z" fill="white" stroke="#1E1E1E" stroke-width="0.785392" stroke-linecap="round" stroke-linejoin="round"/>
<path d="M0.392578 228.743L16.1397 273.047L77.2156 252.765L60.4475 209.258L0.392578 228.743Z" fill="white" stroke="#1E1E1E" stroke-width="0.785392" stroke-linecap="round" stroke-linejoin="round"/>
<path d="M26.0176 219.801L38.8077 196L44.5921 194.327L33.2236 218.089L26.0176 219.801Z" fill="#F6D307"/>
</svg>
